<svg viewBox="0 0 1000 1888.967" preserveAspectRatio="xMaxYMax slice" xmlns="http://www.w3.org/2000/svg"><g transform="scale(4.7822)"><path d="M29.05 2.905 26.145 0 23.24 2.905l2.905 2.905-2.905 2.905 2.905 2.905 2.905-2.905 2.905 2.905 2.905-2.905-2.905-2.905 2.905-2.905L31.955 0 29.05 2.905Z" fill="#a656fd"/><path d="M40.66 2.905 37.755 0 34.85 2.905l2.905 2.905-2.905 2.905 2.905 2.905 2.905-2.905 2.905 2.905 2.905-2.905-2.905-2.905 2.905-2.905L43.565 0 40.66 2.905Z" fill="#56cfef"/><path d="m40.66 14.525-2.905-2.905-2.905 2.905 2.905 2.905-2.905 2.905 2.905 2.905 2.905-2.905 2.905 2.905 2.905-2.905-2.905-2.905 2.905-2.905-2.905-2.905-2.905 2.905Z" fill="#f94e4e"/><path d="M63.9 2.905 60.995 0 58.09 2.905l2.905 2.905-2.905 2.905 2.905 2.905L63.9 8.715l2.905 2.905 2.905-2.905-2.905-2.905 2.905-2.905L66.805 0 63.9 2.905Z" fill="#3ce956"/><path d="m63.9 14.525-2.905-2.905-2.905 2.905 2.905 2.905-2.905 2.905 2.905 2.905 2.905-2.905 2.905 2.905 2.905-2.905-2.905-2.905 2.905-2.905-2.905-2.905-2.905 2.905ZM104.56 5.81 98.75 0l-5.81 5.81 5.81 5.81-5.81 5.81 5.81 5.81 5.81-5.81 5.81 5.81 5.81-5.81-5.81-5.81 5.81-5.81L110.37 0l-5.81 5.81Z" fill="#f94e4e"/><path d="M203.31 2.905 200.405 0 197.5 2.905l2.905 2.905-2.905 2.905 2.905 2.905 2.905-2.905 2.905 2.905 2.905-2.905-2.905-2.905 2.905-2.905L206.215 0l-2.905 2.905Z" fill="#3ce956"/><path d="m11.62 29.05-5.81-5.81L0 29.05l5.81 5.81L0 40.67l5.81 5.81 5.81-5.81 5.81 5.81 5.81-5.81-5.81-5.81 5.81-5.81-5.81-5.81-5.81 5.81Z" fill="#a656fd"/><path d="m23.21 307.87-5.81-5.81-5.81 5.81 5.81 5.81-5.81 5.81 5.81 5.81 5.81-5.81 5.81 5.81 5.81-5.81-5.81-5.81 5.81-5.81-5.81-5.81z" fill="#307de7"/><path d="m75.52 26.145-2.905-2.905-2.905 2.905 2.905 2.905-2.905 2.905 2.905 2.905 2.905-2.905 2.905 2.905 2.905-2.905-2.905-2.905 2.905-2.905-2.905-2.905-2.905 2.905Z" fill="#e6c642"/><path d="m87.13 26.145-2.905-2.905-2.905 2.905 2.905 2.905-2.905 2.905 2.905 2.905 2.905-2.905 2.905 2.905 2.905-2.905-2.905-2.905 2.905-2.905-2.905-2.905-2.905 2.905Z" fill="#e857ed"/><path d="m147.55 31.955-2.904-2.905-2.905 2.905 2.905 2.905-2.905 2.905 2.905 2.905 2.905-2.905 2.905 2.905 2.905-2.905-2.905-2.905 2.905-2.905-2.905-2.905z" fill="#f94e4e"/><path d="m168.46 26.145-2.905-2.905-2.905 2.905 2.905 2.905-2.905 2.905 2.905 2.905 2.905-2.905 2.905 2.905 2.905-2.905-2.905-2.905 2.905-2.905-2.905-2.905-2.905 2.905Z" fill="#e6c642"/><path d="m168.46 37.755-2.905-2.905-2.905 2.905 2.905 2.905-2.905 2.905 2.905 2.905 2.905-2.905 2.905 2.905 2.905-2.905-2.905-2.905 2.905-2.905-2.905-2.905-2.905 2.905Z" fill="#a656fd"/><path d="m127.794 43.565-2.905-2.905-2.905 2.905 2.905 2.905-2.905 2.905 2.905 2.905 2.905-2.905 2.905 2.905 2.905-2.905-2.905-2.905 2.905-2.905-2.905-2.905zM203.31 26.145l-2.905-2.905-2.905 2.905 2.905 2.905-2.905 2.905 2.905 2.905 2.905-2.905 2.905 2.905 2.905-2.905-2.905-2.905 2.905-2.905-2.905-2.905-2.905 2.905Z" fill="#3ce956"/><path d="m34.86 52.28-5.81-5.81-5.81 5.81 5.81 5.81-5.81 5.81 5.81 5.81 5.81-5.81 5.81 5.81 5.81-5.81-5.81-5.81 5.81-5.81-5.81-5.81-5.81 5.81ZM63.9 49.375l-2.905-2.905-2.905 2.905 2.905 2.905-2.905 2.905 2.905 2.905 2.905-2.905 2.905 2.905 2.905-2.905-2.905-2.905 2.905-2.905-2.905-2.905-2.905 2.905Z" fill="#f94e4e"/><path d="m63.9 60.995-2.905-2.905-2.905 2.905 2.905 2.905-2.905 2.905 2.905 2.905 2.905-2.905 2.905 2.905 2.905-2.905-2.905-2.905 2.905-2.905-2.905-2.905-2.905 2.905ZM81.33 52.28l-5.81-5.81-5.81 5.81 5.81 5.81-5.81 5.81 5.81 5.81 5.81-5.81 5.81 5.81 5.81-5.81-5.81-5.81 5.81-5.81-5.81-5.81-5.81 5.81Z" fill="#56cfef"/><path d="m191.69 49.375-2.905-2.905-2.905 2.905 2.905 2.905-2.905 2.905 2.905 2.905 2.905-2.905 2.905 2.905 2.905-2.905-2.905-2.905 2.905-2.905-2.905-2.905-2.905 2.905Z" fill="#e6c642"/><path d="m203.31 49.375-2.905-2.905-2.905 2.905 2.905 2.905-2.905 2.905 2.905 2.905 2.905-2.905 2.905 2.905 2.905-2.905-2.905-2.905 2.905-2.905-2.905-2.905-2.905 2.905Z" fill="#56cfef"/><path d="m191.69 60.995-2.905-2.905-2.905 2.905 2.905 2.905-2.905 2.905 2.905 2.905 2.905-2.905 2.905 2.905 2.905-2.905-2.905-2.905 2.905-2.905-2.905-2.905-2.905 2.905Z" fill="#3ce956"/><path d="m40.66 72.615-2.905-2.905-2.905 2.905 2.905 2.905-2.905 2.905 2.905 2.905 2.905-2.905 2.905 2.905 2.905-2.905-2.905-2.905 2.905-2.905-2.905-2.905-2.905 2.905Z" fill="#f94e4e"/><path d="m40.66 84.225-2.905-2.905-2.905 2.905 2.905 2.905-2.905 2.905 2.905 2.905 2.905-2.905 2.905 2.905 2.905-2.905-2.905-2.905 2.905-2.905-2.905-2.905-2.905 2.905ZM52.28 84.225l-2.905-2.905-2.905 2.905 2.905 2.905-2.905 2.905 2.905 2.905 2.905-2.905 2.905 2.905 2.905-2.905-2.905-2.905 2.905-2.905-2.905-2.905-2.905 2.905Z" fill="#307de7"/><path d="m151.03 75.52-5.81-5.81-5.81 5.81 5.81 5.81-5.81 5.81 5.81 5.81 5.81-5.81 5.81 5.81 5.81-5.81-5.81-5.81 5.81-5.81-5.81-5.81-5.81 5.81Z" fill="#a656fd"/><path d="m174.27 75.52-5.81-5.81-5.81 5.81 5.81 5.81-5.81 5.81 5.81 5.81 5.81-5.81 5.81 5.81 5.81-5.81-5.81-5.81 5.81-5.81-5.81-5.81-5.81 5.81Z" fill="#307de7"/><path d="M5.81 95.845 2.905 92.94 0 95.845l2.905 2.905L0 101.655l2.905 2.905 2.905-2.905 2.905 2.905 2.905-2.905-2.905-2.905 2.905-2.905-2.905-2.905-2.905 2.905ZM98.74 293.355l-2.905-2.905-2.905 2.905 2.905 2.905-2.905 2.905 2.905 2.905 2.905-2.905 2.905 2.905 2.905-2.905-2.905-2.905 2.905-2.905-2.905-2.905z" fill="#3ce956"/><path d="m17.43 107.465-2.905-2.905-2.905 2.905 2.905 2.905-2.905 2.905 2.905 2.905 2.905-2.905 2.905 2.905 2.905-2.905-2.905-2.905 2.905-2.905-2.905-2.905-2.905 2.905Z" fill="#a656fd"/><path d="m145.22 200.395-2.905-2.905-2.905 2.905 2.905 2.905-2.905 2.905 2.905 2.905 2.905-2.905 2.905 2.905 2.905-2.905-2.905-2.905 2.905-2.905-2.905-2.905z" fill="#e6c642"/><path d="m52.28 107.465-2.905-2.905-2.905 2.905 2.905 2.905-2.905 2.905 2.905 2.905 2.905-2.905 2.905 2.905 2.905-2.905-2.905-2.905 2.905-2.905-2.905-2.905-2.905 2.905Z" fill="#f94e4e"/><path d="m63.9 107.465-2.905-2.905-2.905 2.905 2.905 2.905-2.905 2.905 2.905 2.905 2.905-2.905 2.905 2.905 2.905-2.905-2.905-2.905 2.905-2.905-2.905-2.905-2.905 2.905Z" fill="#3ce956"/><path d="m104.56 98.75-5.81-5.81-5.81 5.81 5.81 5.81-5.81 5.81 5.81 5.81 5.81-5.81 5.81 5.81 5.81-5.81-5.81-5.81 5.81-5.81-5.81-5.81-5.81 5.81ZM121.638 304.976l-2.905-2.905-2.905 2.905 2.905 2.905-2.905 2.905 2.905 2.905 2.905-2.905 2.905 2.905 2.905-2.905-2.905-2.905 2.905-2.905-2.905-2.905z" fill="#307de7"/><path d="m156.84 107.465-2.905-2.905-2.905 2.905 2.905 2.905-2.905 2.905 2.905 2.905 2.905-2.905 2.905 2.905 2.905-2.905-2.905-2.905 2.905-2.905-2.905-2.905-2.905 2.905Z" fill="#f94e4e"/><path d="m5.81 119.085-2.905-2.905L0 119.085l2.905 2.905L0 124.895l2.905 2.905 2.905-2.905 2.905 2.905 2.905-2.905-2.905-2.905 2.905-2.905-2.905-2.905-2.905 2.905Z" fill="#a656fd"/><path d="m17.43 130.695-2.905-2.905-2.905 2.905 2.905 2.905-2.905 2.905 2.905 2.905 2.905-2.905 2.905 2.905 2.905-2.905-2.905-2.905 2.905-2.905-2.905-2.905-2.905 2.905Z" fill="#56cfef"/><path d="m34.86 121.99-5.81-5.81-5.81 5.81 5.81 5.81-5.81 5.81 5.81 5.81 5.81-5.81 5.81 5.81 5.81-5.81-5.81-5.81 5.81-5.81-5.81-5.81-5.81 5.81Z" fill="#f94e4e"/><path d="m98.75 119.085-2.905-2.905-2.905 2.905 2.905 2.905-2.905 2.905 2.905 2.905 2.905-2.905 2.905 2.905 2.905-2.905-2.905-2.905 2.905-2.905-2.905-2.905-2.905 2.905Z" fill="#e857ed"/><path d="m121.99 119.085-2.905-2.905-2.905 2.905 2.905 2.905-2.905 2.905 2.905 2.905 2.905-2.905 2.905 2.905 2.905-2.905-2.905-2.905 2.905-2.905-2.905-2.905-2.905 2.905Z" fill="#56cfef"/><path d="m133.6 130.695-2.905-2.905-2.905 2.905 2.905 2.905-2.905 2.905 2.905 2.905 2.905-2.905 2.905 2.905 2.905-2.905-2.905-2.905 2.905-2.905-2.905-2.905-2.905 2.905Z" fill="#f94e4e"/><path d="m145.22 130.695-2.905-2.905-2.905 2.905 2.905 2.905-2.905 2.905 2.905 2.905 2.905-2.905 2.905 2.905 2.905-2.905-2.905-2.905 2.905-2.905-2.905-2.905-2.905 2.905Z" fill="#e6c642"/><path d="m174.27 121.99-5.81-5.81-5.81 5.81 5.81 5.81-5.81 5.81 5.81 5.81 5.81-5.81 5.81 5.81 5.81-5.81-5.81-5.81 5.81-5.81-5.81-5.81-5.81 5.81Z" fill="#f94e4e"/><path d="m197.5 121.99-5.81-5.81-5.81 5.81 5.81 5.81-5.81 5.81 5.81 5.81 5.81-5.81 5.81 5.81 5.81-5.81-5.81-5.81 5.81-5.81-5.81-5.81-5.81 5.81Z" fill="#e6c642"/><path d="m5.81 142.315-2.905-2.905L0 142.315l2.905 2.905L0 148.125l2.905 2.905 2.905-2.905 2.905 2.905 2.905-2.905-2.905-2.905 2.905-2.905-2.905-2.905-2.905 2.905Z" fill="#f94e4e"/><path d="m133.6 293.345-2.905-2.905-2.905 2.905 2.905 2.905-2.905 2.905 2.905 2.905 2.905-2.905 2.905 2.905 2.905-2.905-2.905-2.905 2.905-2.905-2.905-2.905z" fill="#307de7"/><path d="m40.66 142.315-2.905-2.905-2.905 2.905 2.905 2.905-2.905 2.905 2.905 2.905 2.905-2.905 2.905 2.905 2.905-2.905-2.905-2.905 2.905-2.905-2.905-2.905-2.905 2.905Z" fill="#a656fd"/><path d="m29.05 153.935-2.905-2.905-2.905 2.905 2.905 2.905-2.905 2.905 2.905 2.905 2.905-2.905 2.905 2.905 2.905-2.905-2.905-2.905 2.905-2.905-2.905-2.905-2.905 2.905Z" fill="#e857ed"/><path d="m121.638 316.596-2.905-2.905-2.905 2.905 2.905 2.905-2.905 2.905 2.905 2.905 2.905-2.905 2.905 2.905 2.905-2.905-2.905-2.905 2.905-2.905-2.905-2.905z" fill="#56cfef"/><path d="m81.672 331.1-5.81-5.81-5.81 5.81 5.81 5.81-5.81 5.81 5.81 5.81 5.81-5.81 5.81 5.81 5.81-5.81-5.81-5.81 5.81-5.81-5.81-5.81z" fill="#e6c642"/><path d="m81.33 145.22-5.81-5.81-5.81 5.81 5.81 5.81-5.81 5.81 5.81 5.81 5.81-5.81 5.81 5.81 5.81-5.81-5.81-5.81 5.81-5.81-5.81-5.81-5.81 5.81Z" fill="#3ce956"/><path d="m104.56 145.22-5.81-5.81-5.81 5.81 5.81 5.81-5.81 5.81 5.81 5.81 5.81-5.81 5.81 5.81 5.81-5.81-5.81-5.81 5.81-5.81-5.81-5.81-5.81 5.81Z" fill="#307de7"/><path d="m151.03 145.22-5.81-5.81-5.81 5.81 5.81 5.81-5.81 5.81 5.81 5.81 5.81-5.81 5.81 5.81 5.81-5.81-5.81-5.81 5.81-5.81-5.81-5.81-5.81 5.81Z" fill="#e6c642"/><path d="m180.07 142.315-2.905-2.905-2.905 2.905 2.905 2.905-2.905 2.905 2.905 2.905 2.905-2.905 2.905 2.905 2.905-2.905-2.905-2.905 2.905-2.905-2.905-2.905-2.905 2.905Z" fill="#f94e4e"/><path d="m168.46 153.935-2.905-2.905-2.905 2.905 2.905 2.905-2.905 2.905 2.905 2.905 2.905-2.905 2.905 2.905 2.905-2.905-2.905-2.905 2.905-2.905-2.905-2.905-2.905 2.905Z" fill="#a656fd"/><path d="m11.62 168.46-5.81-5.81L0 168.46l5.81 5.81L0 180.08l5.81 5.81 5.81-5.81 5.81 5.81 5.81-5.81-5.81-5.81 5.81-5.81-5.81-5.81-5.81 5.81Z" fill="#e6c642"/><path d="m34.86 168.46-5.81-5.81-5.81 5.81 5.81 5.81-5.81 5.81 5.81 5.81 5.81-5.81 5.81 5.81 5.81-5.81-5.81-5.81 5.81-5.81-5.81-5.81-5.81 5.81Z" fill="#f94e4e"/><path d="m87.13 165.555-2.905-2.905-2.905 2.905 2.905 2.905-2.905 2.905 2.905 2.905 2.905-2.905 2.905 2.905 2.905-2.905-2.905-2.905 2.905-2.905-2.905-2.905-2.905 2.905Z" fill="#a656fd"/><path d="m75.52 177.165-2.905-2.905-2.905 2.905 2.905 2.905-2.905 2.905 2.905 2.905 2.905-2.905 2.905 2.905 2.905-2.905-2.905-2.905 2.905-2.905-2.905-2.905-2.905 2.905Z" fill="#307de7"/><path d="m133.6 177.165-2.905-2.905-2.905 2.905 2.905 2.905-2.905 2.905 2.905 2.905 2.905-2.905 2.905 2.905 2.905-2.905-2.905-2.905 2.905-2.905-2.905-2.905-2.905 2.905Z" fill="#3ce956"/><path d="m168.46 177.165-2.905-2.905-2.905 2.905 2.905 2.905-2.905 2.905 2.905 2.905 2.905-2.905 2.905 2.905 2.905-2.905-2.905-2.905 2.905-2.905-2.905-2.905-2.905 2.905Z" fill="#e6c642"/><path d="m180.07 177.165-2.905-2.905-2.905 2.905 2.905 2.905-2.905 2.905 2.905 2.905 2.905-2.905 2.905 2.905 2.905-2.905-2.905-2.905 2.905-2.905-2.905-2.905-2.905 2.905Z" fill="#e857ed"/><path d="m197.5 168.46-5.81-5.81-5.81 5.81 5.81 5.81-5.81 5.81 5.81 5.81 5.81-5.81 5.81 5.81 5.81-5.81-5.81-5.81 5.81-5.81-5.81-5.81-5.81 5.81Z" fill="#a656fd"/><path d="m63.9 188.785-2.905-2.905-2.905 2.905 2.905 2.905-2.905 2.905 2.905 2.905 2.905-2.905 2.905 2.905 2.905-2.905-2.905-2.905 2.905-2.905-2.905-2.905-2.905 2.905Z" fill="#56cfef"/><path d="m81.33 191.69-5.81-5.81-5.81 5.81 5.81 5.81-5.81 5.81 5.81 5.81 5.81-5.81 5.81 5.81 5.81-5.81-5.81-5.81 5.81-5.81-5.81-5.81-5.81 5.81Z" fill="#3ce956"/><path d="m17.43 212.025-2.905-2.905-2.905 2.905 2.905 2.905-2.905 2.905 2.905 2.905 2.905-2.905 2.905 2.905 2.905-2.905-2.905-2.905 2.905-2.905-2.905-2.905-2.905 2.905Z" fill="#a656fd"/><path d="m5.81 223.645-2.905-2.905L0 223.645l2.905 2.905L0 229.455l2.905 2.905 2.905-2.905 2.905 2.905 2.905-2.905-2.905-2.905 2.905-2.905-2.905-2.905-2.905 2.905Z" fill="#e6c642"/><path d="m17.43 223.645-2.905-2.905-2.905 2.905 2.905 2.905-2.905 2.905 2.905 2.905 2.905-2.905 2.905 2.905 2.905-2.905-2.905-2.905 2.905-2.905-2.905-2.905-2.905 2.905Z" fill="#f94e4e"/><path d="m52.28 212.025-2.905-2.905-2.905 2.905 2.905 2.905-2.905 2.905 2.905 2.905 2.905-2.905 2.905 2.905 2.905-2.905-2.905-2.905 2.905-2.905-2.905-2.905-2.905 2.905Z" fill="#3ce956"/><path d="m63.9 212.025-2.905-2.905-2.905 2.905 2.905 2.905-2.905 2.905 2.905 2.905 2.905-2.905 2.905 2.905 2.905-2.905-2.905-2.905 2.905-2.905-2.905-2.905-2.905 2.905Z" fill="#e6c642"/><path d="m98.75 212.025-2.905-2.905-2.905 2.905 2.905 2.905-2.905 2.905 2.905 2.905 2.905-2.905 2.905 2.905 2.905-2.905-2.905-2.905 2.905-2.905-2.905-2.905-2.905 2.905Z" fill="#3ce956"/><path d="m40.66 293.481-2.905-2.905-2.905 2.905 2.905 2.905-2.905 2.905 2.905 2.905 2.905-2.905 2.905 2.905 2.905-2.905-2.905-2.905 2.905-2.905-2.905-2.905z" fill="#56cfef"/><path d="m110.37 223.645-2.905-2.905-2.905 2.905 2.905 2.905-2.905 2.905 2.905 2.905 2.905-2.905 2.905 2.905 2.905-2.905-2.905-2.905 2.905-2.905-2.905-2.905-2.905 2.905Z" fill="#f94e4e"/><path d="m133.6 212.025-2.905-2.905-2.905 2.905 2.905 2.905-2.905 2.905 2.905 2.905 2.905-2.905 2.905 2.905 2.905-2.905-2.905-2.905 2.905-2.905-2.905-2.905-2.905 2.905Z" fill="#3ce956"/><path d="m121.99 223.645-2.905-2.905-2.905 2.905 2.905 2.905-2.905 2.905 2.905 2.905 2.905-2.905 2.905 2.905 2.905-2.905-2.905-2.905 2.905-2.905-2.905-2.905-2.905 2.905Z" fill="#f94e4e"/><path d="m145.22 212.025-2.905-2.905-2.905 2.905 2.905 2.905-2.905 2.905 2.905 2.905 2.905-2.905 2.905 2.905 2.905-2.905-2.905-2.905 2.905-2.905-2.905-2.905-2.905 2.905Z" fill="#307de7"/><path d="m156.84 223.645-2.905-2.905-2.905 2.905 2.905 2.905-2.905 2.905 2.905 2.905 2.905-2.905 2.905 2.905 2.905-2.905-2.905-2.905 2.905-2.905-2.905-2.905-2.905 2.905Z" fill="#a656fd"/><path d="m174.27 214.93-5.81-5.81-5.81 5.81 5.81 5.81-5.81 5.81 5.81 5.81 5.81-5.81 5.81 5.81 5.81-5.81-5.81-5.81 5.81-5.81-5.81-5.81-5.81 5.81Z" fill="#f94e4e"/><path d="m203.31 212.025-2.905-2.905-2.905 2.905 2.905 2.905-2.905 2.905 2.905 2.905 2.905-2.905 2.905 2.905 2.905-2.905-2.905-2.905 2.905-2.905-2.905-2.905-2.905 2.905Z" fill="#a656fd"/><path d="m191.69 223.645-2.905-2.905-2.905 2.905 2.905 2.905-2.905 2.905 2.905 2.905 2.905-2.905 2.905 2.905 2.905-2.905-2.905-2.905 2.905-2.905-2.905-2.905-2.905 2.905Z" fill="#307de7"/><path d="m203.31 223.645-2.905-2.905-2.905 2.905 2.905 2.905-2.905 2.905 2.905 2.905 2.905-2.905 2.905 2.905 2.905-2.905-2.905-2.905 2.905-2.905-2.905-2.905-2.905 2.905ZM34.86 238.16l-5.81-5.81-5.81 5.81 5.81 5.81-5.81 5.81 5.81 5.81 5.81-5.81 5.81 5.81 5.81-5.81-5.81-5.81 5.81-5.81-5.81-5.81-5.81 5.81Z" fill="#56cfef"/><path d="m58.09 238.16-5.81-5.81-5.81 5.81 5.81 5.81-5.81 5.81 5.81 5.81 5.81-5.81 5.81 5.81 5.81-5.81-5.81-5.81 5.81-5.81-5.81-5.81-5.81 5.81ZM104.56 307.86l-5.81-5.81-5.81 5.81 5.81 5.81-5.81 5.81 5.81 5.81 5.81-5.81 5.81 5.81 5.81-5.81-5.81-5.81 5.81-5.81-5.81-5.81z" fill="#307de7"/><path d="m104.56 238.16-5.81-5.81-5.81 5.81 5.81 5.81-5.81 5.81 5.81 5.81 5.81-5.81 5.81 5.81 5.81-5.81-5.81-5.81 5.81-5.81-5.81-5.81-5.81 5.81Z" fill="#f94e4e"/><path d="m127.8 238.16-5.81-5.81-5.81 5.81 5.81 5.81-5.81 5.81 5.81 5.81 5.81-5.81 5.81 5.81 5.81-5.81-5.81-5.81 5.81-5.81-5.81-5.81-5.81 5.81Z" fill="#e6c642"/><path d="m197.5 238.16-5.81-5.81-5.81 5.81 5.81 5.81-5.81 5.81 5.81 5.81 5.81-5.81 5.81 5.81 5.81-5.81-5.81-5.81 5.81-5.81-5.81-5.81-5.81 5.81Z" fill="#3ce956"/><path d="m11.62 261.4-5.81-5.81L0 261.4l5.81 5.81L0 273.02l5.81 5.81 5.81-5.81 5.81 5.81 5.81-5.81-5.81-5.81 5.81-5.81-5.81-5.81-5.81 5.81Z" fill="#e6c642"/><path d="m52.28 270.115-2.905-2.905-2.905 2.905 2.905 2.905-2.905 2.905 2.905 2.905 2.905-2.905 2.905 2.905 2.905-2.905-2.905-2.905 2.905-2.905-2.905-2.905-2.905 2.905Z" fill="#e857ed"/><path d="m75.52 258.495-2.905-2.905-2.905 2.905 2.905 2.905-2.905 2.905 2.905 2.905 2.905-2.905 2.905 2.905 2.905-2.905-2.905-2.905 2.905-2.905-2.905-2.905-2.905 2.905Z" fill="#a656fd"/><path d="m75.52 270.115-2.905-2.905-2.905 2.905 2.905 2.905-2.905 2.905 2.905 2.905 2.905-2.905 2.905 2.905 2.905-2.905-2.905-2.905 2.905-2.905-2.905-2.905-2.905 2.905Z" fill="#56cfef"/><path d="m151.03 261.4-5.81-5.81-5.81 5.81 5.81 5.81-5.81 5.81 5.81 5.81 5.81-5.81 5.81 5.81 5.81-5.81-5.81-5.81 5.81-5.81-5.81-5.81-5.81 5.81Z" fill="#e857ed"/><path d="m98.75 281.725-2.905-2.905-2.905 2.905 2.905 2.905-2.905 2.905 2.905 2.905 2.905-2.905 2.905 2.905 2.905-2.905-2.905-2.905 2.905-2.905-2.905-2.905-2.905 2.905Z" fill="#a656fd"/><path d="m110.37 293.345-2.905-2.905-2.905 2.905 2.905 2.905-2.905 2.905 2.905 2.905 2.905-2.905 2.905 2.905 2.905-2.905-2.905-2.905 2.905-2.905-2.905-2.905-2.905 2.905Z" fill="#3ce956"/><path d="m174.27 284.63-5.81-5.81-5.81 5.81 5.81 5.81-5.81 5.81 5.81 5.81 5.81-5.81 5.81 5.81 5.81-5.81-5.81-5.81 5.81-5.81-5.81-5.81-5.81 5.81Z" fill="#e6c642"/><path d="m197.5 284.63-5.81-5.81-5.81 5.81 5.81 5.81-5.81 5.81 5.81 5.81 5.81-5.81 5.81 5.81 5.81-5.81-5.81-5.81 5.81-5.81-5.81-5.81-5.81 5.81Z" fill="#f94e4e"/><path d="m40.66 304.965-2.905-2.905-2.905 2.905 2.905 2.905-2.905 2.905 2.905 2.905 2.905-2.905 2.905 2.905 2.905-2.905-2.905-2.905 2.905-2.905-2.905-2.905-2.905 2.905Z" fill="#e6c642"/><path d="m58.09 307.87-5.81-5.81-5.81 5.81 5.81 5.81-5.81 5.81 5.81 5.81 5.81-5.81 5.81 5.81 5.81-5.81-5.81-5.81 5.81-5.81-5.81-5.81-5.81 5.81Z" fill="#3ce956"/><path d="m151.03 307.87-5.81-5.81-5.81 5.81 5.81 5.81-5.81 5.81 5.81 5.81 5.81-5.81 5.81 5.81 5.81-5.81-5.81-5.81 5.81-5.81-5.81-5.81-5.81 5.81Z" fill="#a656fd"/><path d="m180.068 386.284-2.905-2.905-2.905 2.905 2.905 2.905-2.905 2.905 2.905 2.905 2.905-2.905 2.905 2.905 2.905-2.905-2.905-2.905 2.905-2.905-2.905-2.905z" fill="#e6c642"/><path d="m197.5 307.87-5.81-5.81-5.81 5.81 5.81 5.81-5.81 5.81 5.81 5.81 5.81-5.81 5.81 5.81 5.81-5.81-5.81-5.81 5.81-5.81-5.81-5.81-5.81 5.81Z" fill="#56cfef"/><path d="m17.43 328.195-2.905-2.905-2.905 2.905 2.905 2.905-2.905 2.905 2.905 2.905 2.905-2.905 2.905 2.905 2.905-2.905-2.905-2.905 2.905-2.905-2.905-2.905-2.905 2.905Z" fill="#3ce956"/><path d="m34.86 331.1-5.81-5.81-5.81 5.81 5.81 5.81-5.81 5.81 5.81 5.81 5.81-5.81 5.81 5.81 5.81-5.81-5.81-5.81 5.81-5.81-5.81-5.81-5.81 5.81Z" fill="#f94e4e"/><path d="m52.28 328.195-2.905-2.905-2.905 2.905 2.905 2.905-2.905 2.905 2.905 2.905 2.905-2.905 2.905 2.905 2.905-2.905-2.905-2.905 2.905-2.905-2.905-2.905-2.905 2.905Z" fill="#56cfef"/><path d="m63.9 328.195-2.905-2.905-2.905 2.905 2.905 2.905-2.905 2.905 2.905 2.905 2.905-2.905 2.905 2.905 2.905-2.905-2.905-2.905 2.905-2.905-2.905-2.905-2.905 2.905Z" fill="#3ce956"/><path d="m52.28 339.815-2.905-2.905-2.905 2.905 2.905 2.905-2.905 2.905 2.905 2.905 2.905-2.905 2.905 2.905 2.905-2.905-2.905-2.905 2.905-2.905-2.905-2.905-2.905 2.905Z" fill="#e6c642"/><path d="m168.46 328.195-2.905-2.905-2.905 2.905 2.905 2.905-2.905 2.905 2.905 2.905 2.905-2.905 2.905 2.905 2.905-2.905-2.905-2.905 2.905-2.905-2.905-2.905-2.905 2.905Z" fill="#f94e4e"/><path d="m180.07 339.815-2.905-2.905-2.905 2.905 2.905 2.905-2.905 2.905 2.905 2.905 2.905-2.905 2.905 2.905 2.905-2.905-2.905-2.905 2.905-2.905-2.905-2.905-2.905 2.905Z" fill="#3ce956"/><path d="m203.31 328.195-2.905-2.905-2.905 2.905 2.905 2.905-2.905 2.905 2.905 2.905 2.905-2.905 2.905 2.905 2.905-2.905-2.905-2.905 2.905-2.905-2.905-2.905-2.905 2.905Z" fill="#f94e4e"/><path d="m191.69 339.815-2.905-2.905-2.905 2.905 2.905 2.905-2.905 2.905 2.905 2.905 2.905-2.905 2.905 2.905 2.905-2.905-2.905-2.905 2.905-2.905-2.905-2.905-2.905 2.905Z" fill="#e6c642"/><path d="m203.31 339.815-2.905-2.905-2.905 2.905 2.905 2.905-2.905 2.905 2.905 2.905 2.905-2.905 2.905 2.905 2.905-2.905-2.905-2.905 2.905-2.905-2.905-2.905-2.905 2.905Z" fill="#307de7"/><path d="m11.62 354.34-5.81-5.81L0 354.34l5.81 5.81L0 365.96l5.81 5.81 5.81-5.81 5.81 5.81 5.81-5.81-5.81-5.81 5.81-5.81-5.81-5.81-5.81 5.81Z" fill="#56cfef"/><path d="m58.09 354.34-5.81-5.81-5.81 5.81 5.81 5.81-5.81 5.81 5.81 5.81 5.81-5.81 5.81 5.81 5.81-5.81-5.81-5.81 5.81-5.81-5.81-5.81-5.81 5.81ZM121.99 351.435l-2.905-2.905-2.905 2.905 2.905 2.905-2.905 2.905 2.905 2.905 2.905-2.905 2.905 2.905 2.905-2.905-2.905-2.905 2.905-2.905-2.905-2.905-2.905 2.905ZM168.458 363.045l-2.905-2.905-2.905 2.905 2.905 2.905-2.905 2.905 2.905 2.905 2.905-2.905 2.905 2.905 2.905-2.905-2.905-2.905 2.905-2.905-2.905-2.905z" fill="#307de7"/><path d="m151.03 354.34-5.81-5.81-5.81 5.81 5.81 5.81-5.81 5.81 5.81 5.81 5.81-5.81 5.81 5.81 5.81-5.81-5.81-5.81 5.81-5.81-5.81-5.81-5.81 5.81ZM11.62 377.57l-5.81-5.81L0 377.57l5.81 5.81L0 389.19 5.81 395l5.81-5.81 5.81 5.81 5.81-5.81-5.81-5.81 5.81-5.81-5.81-5.81-5.81 5.81Z" fill="#f94e4e"/><path d="m52.28 374.665-2.905-2.905-2.905 2.905 2.905 2.905-2.905 2.905 2.905 2.905 2.905-2.905 2.905 2.905 2.905-2.905-2.905-2.905 2.905-2.905-2.905-2.905-2.905 2.905Z" fill="#307de7"/><path d="m52.28 386.285-2.905-2.905-2.905 2.905 2.905 2.905-2.905 2.905L49.375 395l2.905-2.905L55.185 395l2.905-2.905-2.905-2.905 2.905-2.905-2.905-2.905-2.905 2.905Z" fill="#e6c642"/><path d="m63.9 386.285-2.905-2.905-2.905 2.905 2.905 2.905-2.905 2.905L60.995 395l2.905-2.905L66.805 395l2.905-2.905-2.905-2.905 2.905-2.905-2.905-2.905-2.905 2.905Z" fill="#56cfef"/><path d="m81.33 377.57-5.81-5.81-5.81 5.81 5.81 5.81-5.81 5.81 5.81 5.81 5.81-5.81 5.81 5.81 5.81-5.81-5.81-5.81 5.81-5.81-5.81-5.81-5.81 5.81Z" fill="#e6c642"/><path d="m121.99 374.665-2.905-2.905-2.905 2.905 2.905 2.905-2.905 2.905 2.905 2.905 2.905-2.905 2.905 2.905 2.905-2.905-2.905-2.905 2.905-2.905-2.905-2.905-2.905 2.905Z" fill="#56cfef"/><path d="m133.6 374.665-2.905-2.905-2.905 2.905 2.905 2.905-2.905 2.905 2.905 2.905 2.905-2.905 2.905 2.905 2.905-2.905-2.905-2.905 2.905-2.905-2.905-2.905-2.905 2.905Z" fill="#e6c642"/><path d="m121.99 386.285-2.905-2.905-2.905 2.905 2.905 2.905-2.905 2.905 2.905 2.905 2.905-2.905 2.905 2.905 2.905-2.905-2.905-2.905 2.905-2.905-2.905-2.905-2.905 2.905Z" fill="#a656fd"/><path d="m145.22 46.47-5.81-5.81-5.81 5.81 5.81 5.81-5.81 5.81 5.81 5.81 5.81-5.81 5.81 5.81 5.81-5.81-5.81-5.81 5.81-5.81-5.81-5.81z" fill="#e6c642"/><ellipse cx="151.029" cy="336.912" rx="11.619" ry="11.615" fill="#a656fd" paint-order="stroke fill markers"/><ellipse cx="127.789" cy="197.497" rx="11.619" ry="11.615" fill="#f94e4e" paint-order="stroke fill markers"/><ellipse cx="98.75" cy="226.55" rx="5.802" ry="5.8" fill="#e6c642" paint-order="stroke fill markers"/><ellipse cx="52.282" cy="63.9" rx="5.802" ry="5.8" fill="#e6c642" paint-order="stroke fill markers"/><ellipse cx="29.042" cy="145.22" rx="5.802" ry="5.8" fill="#307de7" paint-order="stroke fill markers"/><ellipse cx="81.361" cy="127.795" rx="11.619" ry="11.615" fill="#a656fd" paint-order="stroke fill markers"/><ellipse cx="133.605" cy="389.19" rx="5.802" ry="5.8" fill="#3ce956" paint-order="stroke fill markers"/><ellipse cx="52.862" cy="98.75" rx="5.802" ry="5.8" fill="#307de7" paint-order="stroke fill markers"/><ellipse cx="75.502" cy="40.66" rx="5.802" ry="5.8" fill="#307de7" paint-order="stroke fill markers"/><ellipse cx="34.861" cy="34.856" rx="11.619" ry="11.615" fill="#f94e4e" paint-order="stroke fill markers"/><ellipse cx="87.13" cy="180.07" rx="5.802" ry="5.8" fill="#a656fd" paint-order="stroke fill markers"/><ellipse cx="191.692" cy="110.37" rx="5.802" ry="5.8" fill="#a656fd" paint-order="stroke fill markers"/><ellipse cx="127.795" cy="267.195" rx="11.619" ry="11.615" fill="#56cfef" paint-order="stroke fill markers"/><ellipse cx="145.228" cy="98.75" rx="5.802" ry="5.8" fill="#a656fd" paint-order="stroke fill markers"/><ellipse cx="34.86" cy="267.195" rx="11.619" ry="11.615" fill="#f94e4e" paint-order="stroke fill markers"/><ellipse cx="122.228" cy="214.93" rx="5.802" ry="5.8" fill="#3ce956" paint-order="stroke fill markers"/><ellipse cx="5.818" cy="214.93" rx="5.802" ry="5.8" fill="#307de7" paint-order="stroke fill markers"/><ellipse cx="127.828" cy="104.56" rx="11.619" ry="11.615" fill="#3ce956" paint-order="stroke fill markers"/><ellipse cx="145.222" cy="226.55" rx="5.802" ry="5.8" fill="#f94e4e" paint-order="stroke fill markers"/><ellipse cx="104.571" cy="383.38" rx="11.619" ry="11.615" fill="#3ce956" paint-order="stroke fill markers"/><ellipse cx="34.861" cy="383.385" rx="11.619" ry="11.615" fill="#e857ed" paint-order="stroke fill markers"/><ellipse cx="34.851" cy="220.735" rx="11.619" ry="11.615" fill="#e6c642" paint-order="stroke fill markers"/><ellipse cx="5.818" cy="110.35" rx="5.802" ry="5.8" fill="#307de7" paint-order="stroke fill markers"/><ellipse cx="127.794" cy="11.62" rx="11.619" ry="11.615" fill="#307de7" paint-order="stroke fill markers"/><ellipse cx="174.269" cy="104.565" rx="11.619" ry="11.615" fill="#e6c642" paint-order="stroke fill markers"/><ellipse cx="197.499" cy="151.03" rx="11.619" ry="11.615" fill="#3ce956" paint-order="stroke fill markers"/><ellipse cx="168.46" cy="168.45" rx="5.802" ry="5.8" fill="#f94e4e" paint-order="stroke fill markers"/><ellipse cx="145.228" cy="121.99" rx="5.802" ry="5.8" fill="#56cfef" paint-order="stroke fill markers"/><ellipse cx="197.499" cy="267.205" rx="11.619" ry="11.615" fill="#307de7" paint-order="stroke fill markers"/><ellipse cx="121.99" cy="365.96" rx="5.802" ry="5.8" fill="#f94e4e" paint-order="stroke fill markers"/><ellipse cx="11.631" cy="81.335" rx="11.619" ry="11.615" fill="#307de7" paint-order="stroke fill markers"/><ellipse cx="5.812" cy="156.82" rx="5.802" ry="5.8" fill="#3ce956" paint-order="stroke fill markers"/><ellipse cx="191.685" cy="331.1" rx="5.802" ry="5.8" fill="#e6c642" paint-order="stroke fill markers"/><ellipse cx="168.455" cy="342.72" rx="5.802" ry="5.8" fill="#f94e4e" paint-order="stroke fill markers"/><ellipse cx="40.67" cy="319.49" rx="5.802" ry="5.8" fill="#3ce956" paint-order="stroke fill markers"/><ellipse cx="17.43" cy="342.73" rx="5.802" ry="5.8" fill="#a656fd" paint-order="stroke fill markers"/><ellipse cx="180.078" cy="40.68" rx="5.802" ry="5.8" fill="#a656fd" paint-order="stroke fill markers"/><ellipse cx="203.295" cy="40.68" rx="5.802" ry="5.8" fill="#a656fd" paint-order="stroke fill markers"/><ellipse cx="191.679" cy="5.85" rx="5.802" ry="5.8" fill="#56cfef" paint-order="stroke fill markers"/><ellipse cx="127.794" cy="58.09" rx="5.802" ry="5.8" fill="#307de7" paint-order="stroke fill markers"/><ellipse cx="197.497" cy="383.385" rx="11.619" ry="11.615" fill="#e857ed" paint-order="stroke fill markers"/></g></svg>