<?xml version="1.0" standalone="no"?><svg xmlns:xlink="http://www.w3.org/1999/xlink" xmlns="http://www.w3.org/2000/svg" viewBox="0 0 1000 1888.9669980727754" preserveAspectRatio="xMaxYMax slice"><g transform="scale(4.782194931829811)"><rect x="0" y="0" width="209.11764705882354" height="395" fill="#ffffff00"/><rect x="23.235294117647058" y="0" width="23.235294117647058" height="23.235294117647058" fill="#ffffff00"/><g transform="translate(23.24,0) scale(0.581) rotate(0)"><path d="M10 5L5 0L0 5L5 10L0 15L5 20L10 15L15 20L20 15L15 10L20 5L15 0L10 5Z" fill="#a656fd"/></g><g transform="translate(34.85,0) scale(0.581) rotate(0)"><path d="M10 5L5 0L0 5L5 10L0 15L5 20L10 15L15 20L20 15L15 10L20 5L15 0L10 5Z" fill="#e6c642"/></g><g transform="translate(34.85,11.62) scale(0.581) rotate(0)"><path d="M10 5L5 0L0 5L5 10L0 15L5 20L10 15L15 20L20 15L15 10L20 5L15 0L10 5Z" fill="#f94e4e"/></g><rect x="46.470588235294116" y="0" width="23.235294117647058" height="23.235294117647058" fill="#ffffff00"/><g transform="translate(58.09,0) scale(0.581) rotate(0)"><path d="M10 5L5 0L0 5L5 10L0 15L5 20L10 15L15 20L20 15L15 10L20 5L15 0L10 5Z" fill="#3ce956"/></g><g transform="translate(58.09,11.62) scale(0.581) rotate(0)"><path d="M10 5L5 0L0 5L5 10L0 15L5 20L10 15L15 20L20 15L15 10L20 5L15 0L10 5Z" fill="#f94e4e"/></g><g transform="translate(92.94,0) scale(1.162) rotate(0)"><path d="M10 5L5 0L0 5L5 10L0 15L5 20L10 15L15 20L20 15L15 10L20 5L15 0L10 5Z" fill="#f94e4e"/></g><g transform="translate(116.18,0) scale(1.162) rotate(0)"><path d="M10 5L5 0L0 5L5 10L0 15L5 20L10 15L15 20L20 15L15 10L20 5L15 0L10 5Z" fill="#307de7"/></g><rect x="185.88235294117646" y="0" width="23.235294117647058" height="23.235294117647058" fill="#ffffff00"/><g transform="translate(185.88,0) scale(0.581) rotate(0)"><path d="M10 5L5 0L0 5L5 10L0 15L5 20L10 15L15 20L20 15L15 10L20 5L15 0L10 5Z" fill="#307de7"/></g><g transform="translate(197.5,0) scale(0.581) rotate(0)"><path d="M10 5L5 0L0 5L5 10L0 15L5 20L10 15L15 20L20 15L15 10L20 5L15 0L10 5Z" fill="#3ce956"/></g><g transform="translate(0,23.24) scale(1.162) rotate(0)"><path d="M10 5L5 0L0 5L5 10L0 15L5 20L10 15L15 20L20 15L15 10L20 5L15 0L10 5Z" fill="#a656fd"/></g><g transform="translate(23.24,23.24) scale(1.162) rotate(0)"><path d="M10 5L5 0L0 5L5 10L0 15L5 20L10 15L15 20L20 15L15 10L20 5L15 0L10 5Z" fill="#f94e4e"/></g><g transform="translate(46.47,23.24) scale(1.162) rotate(0)"><path d="M10 5L5 0L0 5L5 10L0 15L5 20L10 15L15 20L20 15L15 10L20 5L15 0L10 5Z" fill="#307de7"/></g><rect x="69.70588235294117" y="23.235294117647058" width="23.235294117647058" height="23.235294117647058" fill="#ffffff00"/><g transform="translate(69.71,23.24) scale(0.581) rotate(0)"><path d="M10 5L5 0L0 5L5 10L0 15L5 20L10 15L15 20L20 15L15 10L20 5L15 0L10 5Z" fill="#e6c642"/></g><g transform="translate(81.32,23.24) scale(0.581) rotate(0)"><path d="M10 5L5 0L0 5L5 10L0 15L5 20L10 15L15 20L20 15L15 10L20 5L15 0L10 5Z" fill="#307de7"/></g><g transform="translate(69.71,34.85) scale(0.581) rotate(0)"><path d="M10 5L5 0L0 5L5 10L0 15L5 20L10 15L15 20L20 15L15 10L20 5L15 0L10 5Z" fill="#a656fd"/></g><g transform="translate(81.32,34.85) scale(0.581) rotate(0)"><path d="M10 5L5 0L0 5L5 10L0 15L5 20L10 15L15 20L20 15L15 10L20 5L15 0L10 5Z" fill="#f94e4e"/></g><rect x="162.6470588235294" y="23.235294117647058" width="23.235294117647058" height="23.235294117647058" fill="#ffffff00"/><g transform="translate(162.65,23.24) scale(0.581) rotate(0)"><path d="M10 5L5 0L0 5L5 10L0 15L5 20L10 15L15 20L20 15L15 10L20 5L15 0L10 5Z" fill="#e6c642"/></g><g transform="translate(162.65,34.85) scale(0.581) rotate(0)"><path d="M10 5L5 0L0 5L5 10L0 15L5 20L10 15L15 20L20 15L15 10L20 5L15 0L10 5Z" fill="#a656fd"/></g><g transform="translate(174.26,34.85) scale(0.581) rotate(0)"><path d="M10 5L5 0L0 5L5 10L0 15L5 20L10 15L15 20L20 15L15 10L20 5L15 0L10 5Z" fill="#a656fd"/></g><rect x="185.88235294117646" y="23.235294117647058" width="23.235294117647058" height="23.235294117647058" fill="#ffffff00"/><g transform="translate(185.88,23.24) scale(0.581) rotate(0)"><path d="M10 5L5 0L0 5L5 10L0 15L5 20L10 15L15 20L20 15L15 10L20 5L15 0L10 5Z" fill="#3ce956"/></g><g transform="translate(197.5,23.24) scale(0.581) rotate(0)"><path d="M10 5L5 0L0 5L5 10L0 15L5 20L10 15L15 20L20 15L15 10L20 5L15 0L10 5Z" fill="#3ce956"/></g><g transform="translate(197.5,34.85) scale(0.581) rotate(0)"><path d="M10 5L5 0L0 5L5 10L0 15L5 20L10 15L15 20L20 15L15 10L20 5L15 0L10 5Z" fill="#e6c642"/></g><g transform="translate(23.24,46.47) scale(1.162) rotate(0)"><path d="M10 5L5 0L0 5L5 10L0 15L5 20L10 15L15 20L20 15L15 10L20 5L15 0L10 5Z" fill="#f94e4e"/></g><rect x="46.470588235294116" y="46.470588235294116" width="23.235294117647058" height="23.235294117647058" fill="#ffffff00"/><g transform="translate(58.09,46.47) scale(0.581) rotate(0)"><path d="M10 5L5 0L0 5L5 10L0 15L5 20L10 15L15 20L20 15L15 10L20 5L15 0L10 5Z" fill="#f94e4e"/></g><g transform="translate(46.47,58.09) scale(0.581) rotate(0)"><path d="M10 5L5 0L0 5L5 10L0 15L5 20L10 15L15 20L20 15L15 10L20 5L15 0L10 5Z" fill="#e6c642"/></g><g transform="translate(58.09,58.09) scale(0.581) rotate(0)"><path d="M10 5L5 0L0 5L5 10L0 15L5 20L10 15L15 20L20 15L15 10L20 5L15 0L10 5Z" fill="#f94e4e"/></g><g transform="translate(69.71,46.47) scale(1.162) rotate(0)"><path d="M10 5L5 0L0 5L5 10L0 15L5 20L10 15L15 20L20 15L15 10L20 5L15 0L10 5Z" fill="#f94e4e"/></g><rect x="185.88235294117646" y="46.470588235294116" width="23.235294117647058" height="23.235294117647058" fill="#ffffff00"/><g transform="translate(185.88,46.47) scale(0.581) rotate(0)"><path d="M10 5L5 0L0 5L5 10L0 15L5 20L10 15L15 20L20 15L15 10L20 5L15 0L10 5Z" fill="#e6c642"/></g><g transform="translate(197.5,46.47) scale(0.581) rotate(0)"><path d="M10 5L5 0L0 5L5 10L0 15L5 20L10 15L15 20L20 15L15 10L20 5L15 0L10 5Z" fill="#307de7"/></g><g transform="translate(185.88,58.09) scale(0.581) rotate(0)"><path d="M10 5L5 0L0 5L5 10L0 15L5 20L10 15L15 20L20 15L15 10L20 5L15 0L10 5Z" fill="#3ce956"/></g><g transform="translate(0,69.71) scale(1.162) rotate(0)"><path d="M10 5L5 0L0 5L5 10L0 15L5 20L10 15L15 20L20 15L15 10L20 5L15 0L10 5Z" fill="#f94e4e"/></g><rect x="23.235294117647058" y="69.70588235294117" width="23.235294117647058" height="23.235294117647058" fill="#ffffff00"/><g transform="translate(34.85,69.71) scale(0.581) rotate(0)"><path d="M10 5L5 0L0 5L5 10L0 15L5 20L10 15L15 20L20 15L15 10L20 5L15 0L10 5Z" fill="#f94e4e"/></g><g transform="translate(34.85,81.32) scale(0.581) rotate(0)"><path d="M10 5L5 0L0 5L5 10L0 15L5 20L10 15L15 20L20 15L15 10L20 5L15 0L10 5Z" fill="#307de7"/></g><rect x="46.470588235294116" y="69.70588235294117" width="23.235294117647058" height="23.235294117647058" fill="#ffffff00"/><g transform="translate(46.47,81.32) scale(0.581) rotate(0)"><path d="M10 5L5 0L0 5L5 10L0 15L5 20L10 15L15 20L20 15L15 10L20 5L15 0L10 5Z" fill="#307de7"/></g><g transform="translate(139.41,69.71) scale(1.162) rotate(0)"><path d="M10 5L5 0L0 5L5 10L0 15L5 20L10 15L15 20L20 15L15 10L20 5L15 0L10 5Z" fill="#a656fd"/></g><g transform="translate(162.65,69.71) scale(1.162) rotate(0)"><path d="M10 5L5 0L0 5L5 10L0 15L5 20L10 15L15 20L20 15L15 10L20 5L15 0L10 5Z" fill="#307de7"/></g><rect x="0" y="92.94117647058823" width="23.235294117647058" height="23.235294117647058" fill="#ffffff00"/><g transform="translate(0,92.94) scale(0.581) rotate(0)"><path d="M10 5L5 0L0 5L5 10L0 15L5 20L10 15L15 20L20 15L15 10L20 5L15 0L10 5Z" fill="#3ce956"/></g><g transform="translate(11.62,92.94) scale(0.581) rotate(0)"><path d="M10 5L5 0L0 5L5 10L0 15L5 20L10 15L15 20L20 15L15 10L20 5L15 0L10 5Z" fill="#3ce956"/></g><g transform="translate(0,104.56) scale(0.581) rotate(0)"><path d="M10 5L5 0L0 5L5 10L0 15L5 20L10 15L15 20L20 15L15 10L20 5L15 0L10 5Z" fill="#f94e4e"/></g><g transform="translate(11.62,104.56) scale(0.581) rotate(0)"><path d="M10 5L5 0L0 5L5 10L0 15L5 20L10 15L15 20L20 15L15 10L20 5L15 0L10 5Z" fill="#a656fd"/></g><rect x="46.470588235294116" y="92.94117647058823" width="23.235294117647058" height="23.235294117647058" fill="#ffffff00"/><g transform="translate(46.47,92.94) scale(0.581) rotate(0)"><path d="M10 5L5 0L0 5L5 10L0 15L5 20L10 15L15 20L20 15L15 10L20 5L15 0L10 5Z" fill="#e6c642"/></g><g transform="translate(58.09,92.94) scale(0.581) rotate(0)"><path d="M10 5L5 0L0 5L5 10L0 15L5 20L10 15L15 20L20 15L15 10L20 5L15 0L10 5Z" fill="#e6c642"/></g><g transform="translate(46.47,104.56) scale(0.581) rotate(0)"><path d="M10 5L5 0L0 5L5 10L0 15L5 20L10 15L15 20L20 15L15 10L20 5L15 0L10 5Z" fill="#f94e4e"/></g><g transform="translate(58.09,104.56) scale(0.581) rotate(0)"><path d="M10 5L5 0L0 5L5 10L0 15L5 20L10 15L15 20L20 15L15 10L20 5L15 0L10 5Z" fill="#3ce956"/></g><g transform="translate(92.94,92.94) scale(1.162) rotate(0)"><path d="M10 5L5 0L0 5L5 10L0 15L5 20L10 15L15 20L20 15L15 10L20 5L15 0L10 5Z" fill="#307de7"/></g><g transform="translate(116.18,92.94) scale(1.162) rotate(0)"><path d="M10 5L5 0L0 5L5 10L0 15L5 20L10 15L15 20L20 15L15 10L20 5L15 0L10 5Z" fill="#307de7"/></g><rect x="139.41176470588235" y="92.94117647058823" width="23.235294117647058" height="23.235294117647058" fill="#ffffff00"/><g transform="translate(139.41,92.94) scale(0.581) rotate(0)"><path d="M10 5L5 0L0 5L5 10L0 15L5 20L10 15L15 20L20 15L15 10L20 5L15 0L10 5Z" fill="#a656fd"/></g><g transform="translate(139.41,104.56) scale(0.581) rotate(0)"><path d="M10 5L5 0L0 5L5 10L0 15L5 20L10 15L15 20L20 15L15 10L20 5L15 0L10 5Z" fill="#307de7"/></g><g transform="translate(151.03,104.56) scale(0.581) rotate(0)"><path d="M10 5L5 0L0 5L5 10L0 15L5 20L10 15L15 20L20 15L15 10L20 5L15 0L10 5Z" fill="#f94e4e"/></g><g transform="translate(162.65,92.94) scale(1.162) rotate(0)"><path d="M10 5L5 0L0 5L5 10L0 15L5 20L10 15L15 20L20 15L15 10L20 5L15 0L10 5Z" fill="#f94e4e"/></g><rect x="0" y="116.17647058823529" width="23.235294117647058" height="23.235294117647058" fill="#ffffff00"/><g transform="translate(0,116.18) scale(0.581) rotate(0)"><path d="M10 5L5 0L0 5L5 10L0 15L5 20L10 15L15 20L20 15L15 10L20 5L15 0L10 5Z" fill="#a656fd"/></g><g transform="translate(11.62,116.18) scale(0.581) rotate(0)"><path d="M10 5L5 0L0 5L5 10L0 15L5 20L10 15L15 20L20 15L15 10L20 5L15 0L10 5Z" fill="#a656fd"/></g><g transform="translate(11.62,127.79) scale(0.581) rotate(0)"><path d="M10 5L5 0L0 5L5 10L0 15L5 20L10 15L15 20L20 15L15 10L20 5L15 0L10 5Z" fill="#a656fd"/></g><g transform="translate(23.24,116.18) scale(1.162) rotate(0)"><path d="M10 5L5 0L0 5L5 10L0 15L5 20L10 15L15 20L20 15L15 10L20 5L15 0L10 5Z" fill="#f94e4e"/></g><g transform="translate(69.71,116.18) scale(1.162) rotate(0)"><path d="M10 5L5 0L0 5L5 10L0 15L5 20L10 15L15 20L20 15L15 10L20 5L15 0L10 5Z" fill="#307de7"/></g><rect x="92.94117647058823" y="116.17647058823529" width="23.235294117647058" height="23.235294117647058" fill="#ffffff00"/><g transform="translate(92.94,116.18) scale(0.581) rotate(0)"><path d="M10 5L5 0L0 5L5 10L0 15L5 20L10 15L15 20L20 15L15 10L20 5L15 0L10 5Z" fill="#307de7"/></g><g transform="translate(104.56,116.18) scale(0.581) rotate(0)"><path d="M10 5L5 0L0 5L5 10L0 15L5 20L10 15L15 20L20 15L15 10L20 5L15 0L10 5Z" fill="#307de7"/></g><rect x="116.17647058823529" y="116.17647058823529" width="23.235294117647058" height="23.235294117647058" fill="#ffffff00"/><g transform="translate(116.18,116.18) scale(0.581) rotate(0)"><path d="M10 5L5 0L0 5L5 10L0 15L5 20L10 15L15 20L20 15L15 10L20 5L15 0L10 5Z" fill="#307de7"/></g><g transform="translate(116.18,127.79) scale(0.581) rotate(0)"><path d="M10 5L5 0L0 5L5 10L0 15L5 20L10 15L15 20L20 15L15 10L20 5L15 0L10 5Z" fill="#307de7"/></g><g transform="translate(127.79,127.79) scale(0.581) rotate(0)"><path d="M10 5L5 0L0 5L5 10L0 15L5 20L10 15L15 20L20 15L15 10L20 5L15 0L10 5Z" fill="#f94e4e"/></g><rect x="139.41176470588235" y="116.17647058823529" width="23.235294117647058" height="23.235294117647058" fill="#ffffff00"/><g transform="translate(139.41,127.79) scale(0.581) rotate(0)"><path d="M10 5L5 0L0 5L5 10L0 15L5 20L10 15L15 20L20 15L15 10L20 5L15 0L10 5Z" fill="#e6c642"/></g><g transform="translate(162.65,116.18) scale(1.162) rotate(0)"><path d="M10 5L5 0L0 5L5 10L0 15L5 20L10 15L15 20L20 15L15 10L20 5L15 0L10 5Z" fill="#f94e4e"/></g><g transform="translate(185.88,116.18) scale(1.162) rotate(0)"><path d="M10 5L5 0L0 5L5 10L0 15L5 20L10 15L15 20L20 15L15 10L20 5L15 0L10 5Z" fill="#e6c642"/></g><rect x="0" y="139.41176470588235" width="23.235294117647058" height="23.235294117647058" fill="#ffffff00"/><g transform="translate(0,139.41) scale(0.581) rotate(0)"><path d="M10 5L5 0L0 5L5 10L0 15L5 20L10 15L15 20L20 15L15 10L20 5L15 0L10 5Z" fill="#f94e4e"/></g><g transform="translate(0,151.03) scale(0.581) rotate(0)"><path d="M10 5L5 0L0 5L5 10L0 15L5 20L10 15L15 20L20 15L15 10L20 5L15 0L10 5Z" fill="#3ce956"/></g><g transform="translate(11.62,151.03) scale(0.581) rotate(0)"><path d="M10 5L5 0L0 5L5 10L0 15L5 20L10 15L15 20L20 15L15 10L20 5L15 0L10 5Z" fill="#307de7"/></g><rect x="23.235294117647058" y="139.41176470588235" width="23.235294117647058" height="23.235294117647058" fill="#ffffff00"/><g transform="translate(23.24,139.41) scale(0.581) rotate(0)"><path d="M10 5L5 0L0 5L5 10L0 15L5 20L10 15L15 20L20 15L15 10L20 5L15 0L10 5Z" fill="#f94e4e"/></g><g transform="translate(34.85,139.41) scale(0.581) rotate(0)"><path d="M10 5L5 0L0 5L5 10L0 15L5 20L10 15L15 20L20 15L15 10L20 5L15 0L10 5Z" fill="#a656fd"/></g><g transform="translate(23.24,151.03) scale(0.581) rotate(0)"><path d="M10 5L5 0L0 5L5 10L0 15L5 20L10 15L15 20L20 15L15 10L20 5L15 0L10 5Z" fill="#a656fd"/></g><g transform="translate(34.85,151.03) scale(0.581) rotate(0)"><path d="M10 5L5 0L0 5L5 10L0 15L5 20L10 15L15 20L20 15L15 10L20 5L15 0L10 5Z" fill="#a656fd"/></g><g transform="translate(46.47,139.41) scale(1.162) rotate(0)"><path d="M10 5L5 0L0 5L5 10L0 15L5 20L10 15L15 20L20 15L15 10L20 5L15 0L10 5Z" fill="#307de7"/></g><g transform="translate(69.71,139.41) scale(1.162) rotate(0)"><path d="M10 5L5 0L0 5L5 10L0 15L5 20L10 15L15 20L20 15L15 10L20 5L15 0L10 5Z" fill="#3ce956"/></g><g transform="translate(92.94,139.41) scale(1.162) rotate(0)"><path d="M10 5L5 0L0 5L5 10L0 15L5 20L10 15L15 20L20 15L15 10L20 5L15 0L10 5Z" fill="#307de7"/></g><g transform="translate(139.41,139.41) scale(1.162) rotate(0)"><path d="M10 5L5 0L0 5L5 10L0 15L5 20L10 15L15 20L20 15L15 10L20 5L15 0L10 5Z" fill="#e6c642"/></g><rect x="162.6470588235294" y="139.41176470588235" width="23.235294117647058" height="23.235294117647058" fill="#ffffff00"/><g transform="translate(174.26,139.41) scale(0.581) rotate(0)"><path d="M10 5L5 0L0 5L5 10L0 15L5 20L10 15L15 20L20 15L15 10L20 5L15 0L10 5Z" fill="#f94e4e"/></g><g transform="translate(162.65,151.03) scale(0.581) rotate(0)"><path d="M10 5L5 0L0 5L5 10L0 15L5 20L10 15L15 20L20 15L15 10L20 5L15 0L10 5Z" fill="#a656fd"/></g><g transform="translate(185.88,139.41) scale(1.162) rotate(0)"><path d="M10 5L5 0L0 5L5 10L0 15L5 20L10 15L15 20L20 15L15 10L20 5L15 0L10 5Z" fill="#e6c642"/></g><g transform="translate(0,162.65) scale(1.162) rotate(0)"><path d="M10 5L5 0L0 5L5 10L0 15L5 20L10 15L15 20L20 15L15 10L20 5L15 0L10 5Z" fill="#e6c642"/></g><g transform="translate(23.24,162.65) scale(1.162) rotate(0)"><path d="M10 5L5 0L0 5L5 10L0 15L5 20L10 15L15 20L20 15L15 10L20 5L15 0L10 5Z" fill="#f94e4e"/></g><rect x="69.70588235294117" y="162.6470588235294" width="23.235294117647058" height="23.235294117647058" fill="#ffffff00"/><g transform="translate(81.32,162.65) scale(0.581) rotate(0)"><path d="M10 5L5 0L0 5L5 10L0 15L5 20L10 15L15 20L20 15L15 10L20 5L15 0L10 5Z" fill="#a656fd"/></g><g transform="translate(69.71,174.26) scale(0.581) rotate(0)"><path d="M10 5L5 0L0 5L5 10L0 15L5 20L10 15L15 20L20 15L15 10L20 5L15 0L10 5Z" fill="#307de7"/></g><rect x="116.17647058823529" y="162.6470588235294" width="23.235294117647058" height="23.235294117647058" fill="#ffffff00"/><g transform="translate(127.79,174.26) scale(0.581) rotate(0)"><path d="M10 5L5 0L0 5L5 10L0 15L5 20L10 15L15 20L20 15L15 10L20 5L15 0L10 5Z" fill="#3ce956"/></g><rect x="162.6470588235294" y="162.6470588235294" width="23.235294117647058" height="23.235294117647058" fill="#ffffff00"/><g transform="translate(162.65,162.65) scale(0.581) rotate(0)"><path d="M10 5L5 0L0 5L5 10L0 15L5 20L10 15L15 20L20 15L15 10L20 5L15 0L10 5Z" fill="#f94e4e"/></g><g transform="translate(162.65,174.26) scale(0.581) rotate(0)"><path d="M10 5L5 0L0 5L5 10L0 15L5 20L10 15L15 20L20 15L15 10L20 5L15 0L10 5Z" fill="#e6c642"/></g><g transform="translate(174.26,174.26) scale(0.581) rotate(0)"><path d="M10 5L5 0L0 5L5 10L0 15L5 20L10 15L15 20L20 15L15 10L20 5L15 0L10 5Z" fill="#e6c642"/></g><g transform="translate(185.88,162.65) scale(1.162) rotate(0)"><path d="M10 5L5 0L0 5L5 10L0 15L5 20L10 15L15 20L20 15L15 10L20 5L15 0L10 5Z" fill="#a656fd"/></g><rect x="46.470588235294116" y="185.88235294117646" width="23.235294117647058" height="23.235294117647058" fill="#ffffff00"/><g transform="translate(58.09,185.88) scale(0.581) rotate(0)"><path d="M10 5L5 0L0 5L5 10L0 15L5 20L10 15L15 20L20 15L15 10L20 5L15 0L10 5Z" fill="#3ce956"/></g><g transform="translate(69.71,185.88) scale(1.162) rotate(0)"><path d="M10 5L5 0L0 5L5 10L0 15L5 20L10 15L15 20L20 15L15 10L20 5L15 0L10 5Z" fill="#3ce956"/></g><g transform="translate(116.18,185.88) scale(1.162) rotate(0)"><path d="M10 5L5 0L0 5L5 10L0 15L5 20L10 15L15 20L20 15L15 10L20 5L15 0L10 5Z" fill="#f94e4e"/></g><rect x="0" y="209.11764705882354" width="23.235294117647058" height="23.235294117647058" fill="#ffffff00"/><g transform="translate(0,209.12) scale(0.581) rotate(0)"><path d="M10 5L5 0L0 5L5 10L0 15L5 20L10 15L15 20L20 15L15 10L20 5L15 0L10 5Z" fill="#307de7"/></g><g transform="translate(11.62,209.12) scale(0.581) rotate(0)"><path d="M10 5L5 0L0 5L5 10L0 15L5 20L10 15L15 20L20 15L15 10L20 5L15 0L10 5Z" fill="#a656fd"/></g><g transform="translate(0,220.74) scale(0.581) rotate(0)"><path d="M10 5L5 0L0 5L5 10L0 15L5 20L10 15L15 20L20 15L15 10L20 5L15 0L10 5Z" fill="#e6c642"/></g><g transform="translate(11.62,220.74) scale(0.581) rotate(0)"><path d="M10 5L5 0L0 5L5 10L0 15L5 20L10 15L15 20L20 15L15 10L20 5L15 0L10 5Z" fill="#f94e4e"/></g><g transform="translate(23.24,209.12) scale(1.162) rotate(0)"><path d="M10 5L5 0L0 5L5 10L0 15L5 20L10 15L15 20L20 15L15 10L20 5L15 0L10 5Z" fill="#3ce956"/></g><rect x="46.470588235294116" y="209.11764705882354" width="23.235294117647058" height="23.235294117647058" fill="#ffffff00"/><g transform="translate(46.47,209.12) scale(0.581) rotate(0)"><path d="M10 5L5 0L0 5L5 10L0 15L5 20L10 15L15 20L20 15L15 10L20 5L15 0L10 5Z" fill="#3ce956"/></g><g transform="translate(58.09,209.12) scale(0.581) rotate(0)"><path d="M10 5L5 0L0 5L5 10L0 15L5 20L10 15L15 20L20 15L15 10L20 5L15 0L10 5Z" fill="#e6c642"/></g><rect x="92.94117647058823" y="209.11764705882354" width="23.235294117647058" height="23.235294117647058" fill="#ffffff00"/><g transform="translate(92.94,209.12) scale(0.581) rotate(0)"><path d="M10 5L5 0L0 5L5 10L0 15L5 20L10 15L15 20L20 15L15 10L20 5L15 0L10 5Z" fill="#3ce956"/></g><g transform="translate(104.56,209.12) scale(0.581) rotate(0)"><path d="M10 5L5 0L0 5L5 10L0 15L5 20L10 15L15 20L20 15L15 10L20 5L15 0L10 5Z" fill="#a656fd"/></g><g transform="translate(92.94,220.74) scale(0.581) rotate(0)"><path d="M10 5L5 0L0 5L5 10L0 15L5 20L10 15L15 20L20 15L15 10L20 5L15 0L10 5Z" fill="#3ce956"/></g><g transform="translate(104.56,220.74) scale(0.581) rotate(0)"><path d="M10 5L5 0L0 5L5 10L0 15L5 20L10 15L15 20L20 15L15 10L20 5L15 0L10 5Z" fill="#f94e4e"/></g><rect x="116.17647058823529" y="209.11764705882354" width="23.235294117647058" height="23.235294117647058" fill="#ffffff00"/><g transform="translate(116.18,209.12) scale(0.581) rotate(0)"><path d="M10 5L5 0L0 5L5 10L0 15L5 20L10 15L15 20L20 15L15 10L20 5L15 0L10 5Z" fill="#e6c642"/></g><g transform="translate(127.79,209.12) scale(0.581) rotate(0)"><path d="M10 5L5 0L0 5L5 10L0 15L5 20L10 15L15 20L20 15L15 10L20 5L15 0L10 5Z" fill="#3ce956"/></g><g transform="translate(116.18,220.74) scale(0.581) rotate(0)"><path d="M10 5L5 0L0 5L5 10L0 15L5 20L10 15L15 20L20 15L15 10L20 5L15 0L10 5Z" fill="#f94e4e"/></g><rect x="139.41176470588235" y="209.11764705882354" width="23.235294117647058" height="23.235294117647058" fill="#ffffff00"/><g transform="translate(139.41,209.12) scale(0.581) rotate(0)"><path d="M10 5L5 0L0 5L5 10L0 15L5 20L10 15L15 20L20 15L15 10L20 5L15 0L10 5Z" fill="#307de7"/></g><g transform="translate(139.41,220.74) scale(0.581) rotate(0)"><path d="M10 5L5 0L0 5L5 10L0 15L5 20L10 15L15 20L20 15L15 10L20 5L15 0L10 5Z" fill="#a656fd"/></g><g transform="translate(151.03,220.74) scale(0.581) rotate(0)"><path d="M10 5L5 0L0 5L5 10L0 15L5 20L10 15L15 20L20 15L15 10L20 5L15 0L10 5Z" fill="#a656fd"/></g><g transform="translate(162.65,209.12) scale(1.162) rotate(0)"><path d="M10 5L5 0L0 5L5 10L0 15L5 20L10 15L15 20L20 15L15 10L20 5L15 0L10 5Z" fill="#f94e4e"/></g><rect x="185.88235294117646" y="209.11764705882354" width="23.235294117647058" height="23.235294117647058" fill="#ffffff00"/><g transform="translate(197.5,209.12) scale(0.581) rotate(0)"><path d="M10 5L5 0L0 5L5 10L0 15L5 20L10 15L15 20L20 15L15 10L20 5L15 0L10 5Z" fill="#a656fd"/></g><g transform="translate(185.88,220.74) scale(0.581) rotate(0)"><path d="M10 5L5 0L0 5L5 10L0 15L5 20L10 15L15 20L20 15L15 10L20 5L15 0L10 5Z" fill="#307de7"/></g><g transform="translate(197.5,220.74) scale(0.581) rotate(0)"><path d="M10 5L5 0L0 5L5 10L0 15L5 20L10 15L15 20L20 15L15 10L20 5L15 0L10 5Z" fill="#307de7"/></g><g transform="translate(23.24,232.35) scale(1.162) rotate(0)"><path d="M10 5L5 0L0 5L5 10L0 15L5 20L10 15L15 20L20 15L15 10L20 5L15 0L10 5Z" fill="#3ce956"/></g><g transform="translate(46.47,232.35) scale(1.162) rotate(0)"><path d="M10 5L5 0L0 5L5 10L0 15L5 20L10 15L15 20L20 15L15 10L20 5L15 0L10 5Z" fill="#307de7"/></g><g transform="translate(69.71,232.35) scale(1.162) rotate(0)"><path d="M10 5L5 0L0 5L5 10L0 15L5 20L10 15L15 20L20 15L15 10L20 5L15 0L10 5Z" fill="#307de7"/></g><g transform="translate(92.94,232.35) scale(1.162) rotate(0)"><path d="M10 5L5 0L0 5L5 10L0 15L5 20L10 15L15 20L20 15L15 10L20 5L15 0L10 5Z" fill="#f94e4e"/></g><g transform="translate(116.18,232.35) scale(1.162) rotate(0)"><path d="M10 5L5 0L0 5L5 10L0 15L5 20L10 15L15 20L20 15L15 10L20 5L15 0L10 5Z" fill="#e6c642"/></g><g transform="translate(185.88,232.35) scale(1.162) rotate(0)"><path d="M10 5L5 0L0 5L5 10L0 15L5 20L10 15L15 20L20 15L15 10L20 5L15 0L10 5Z" fill="#3ce956"/></g><g transform="translate(0,255.59) scale(1.162) rotate(0)"><path d="M10 5L5 0L0 5L5 10L0 15L5 20L10 15L15 20L20 15L15 10L20 5L15 0L10 5Z" fill="#e6c642"/></g><rect x="46.470588235294116" y="255.58823529411762" width="23.235294117647058" height="23.235294117647058" fill="#ffffff00"/><g transform="translate(46.47,267.21) scale(0.581) rotate(0)"><path d="M10 5L5 0L0 5L5 10L0 15L5 20L10 15L15 20L20 15L15 10L20 5L15 0L10 5Z" fill="#307de7"/></g><rect x="69.70588235294117" y="255.58823529411762" width="23.235294117647058" height="23.235294117647058" fill="#ffffff00"/><g transform="translate(69.71,255.59) scale(0.581) rotate(0)"><path d="M10 5L5 0L0 5L5 10L0 15L5 20L10 15L15 20L20 15L15 10L20 5L15 0L10 5Z" fill="#a656fd"/></g><g transform="translate(69.71,267.21) scale(0.581) rotate(0)"><path d="M10 5L5 0L0 5L5 10L0 15L5 20L10 15L15 20L20 15L15 10L20 5L15 0L10 5Z" fill="#f94e4e"/></g><g transform="translate(116.18,255.59) scale(1.162) rotate(0)"><path d="M10 5L5 0L0 5L5 10L0 15L5 20L10 15L15 20L20 15L15 10L20 5L15 0L10 5Z" fill="#3ce956"/></g><g transform="translate(139.41,255.59) scale(1.162) rotate(0)"><path d="M10 5L5 0L0 5L5 10L0 15L5 20L10 15L15 20L20 15L15 10L20 5L15 0L10 5Z" fill="#3ce956"/></g><g transform="translate(185.88,255.59) scale(1.162) rotate(0)"><path d="M10 5L5 0L0 5L5 10L0 15L5 20L10 15L15 20L20 15L15 10L20 5L15 0L10 5Z" fill="#307de7"/></g><rect x="92.94117647058823" y="278.8235294117647" width="23.235294117647058" height="23.235294117647058" fill="#ffffff00"/><g transform="translate(92.94,278.82) scale(0.581) rotate(0)"><path d="M10 5L5 0L0 5L5 10L0 15L5 20L10 15L15 20L20 15L15 10L20 5L15 0L10 5Z" fill="#a656fd"/></g><g transform="translate(92.94,290.44) scale(0.581) rotate(0)"><path d="M10 5L5 0L0 5L5 10L0 15L5 20L10 15L15 20L20 15L15 10L20 5L15 0L10 5Z" fill="#307de7"/></g><g transform="translate(104.56,290.44) scale(0.581) rotate(0)"><path d="M10 5L5 0L0 5L5 10L0 15L5 20L10 15L15 20L20 15L15 10L20 5L15 0L10 5Z" fill="#3ce956"/></g><g transform="translate(162.65,278.82) scale(1.162) rotate(0)"><path d="M10 5L5 0L0 5L5 10L0 15L5 20L10 15L15 20L20 15L15 10L20 5L15 0L10 5Z" fill="#e6c642"/></g><g transform="translate(185.88,278.82) scale(1.162) rotate(0)"><path d="M10 5L5 0L0 5L5 10L0 15L5 20L10 15L15 20L20 15L15 10L20 5L15 0L10 5Z" fill="#f94e4e"/></g><rect x="23.235294117647058" y="302.05882352941177" width="23.235294117647058" height="23.235294117647058" fill="#ffffff00"/><g transform="translate(34.85,302.06) scale(0.581) rotate(0)"><path d="M10 5L5 0L0 5L5 10L0 15L5 20L10 15L15 20L20 15L15 10L20 5L15 0L10 5Z" fill="#e6c642"/></g><g transform="translate(23.24,313.68) scale(0.581) rotate(0)"><path d="M10 5L5 0L0 5L5 10L0 15L5 20L10 15L15 20L20 15L15 10L20 5L15 0L10 5Z" fill="#f94e4e"/></g><g transform="translate(34.85,313.68) scale(0.581) rotate(0)"><path d="M10 5L5 0L0 5L5 10L0 15L5 20L10 15L15 20L20 15L15 10L20 5L15 0L10 5Z" fill="#f94e4e"/></g><g transform="translate(46.47,302.06) scale(1.162) rotate(0)"><path d="M10 5L5 0L0 5L5 10L0 15L5 20L10 15L15 20L20 15L15 10L20 5L15 0L10 5Z" fill="#3ce956"/></g><g transform="translate(139.41,302.06) scale(1.162) rotate(0)"><path d="M10 5L5 0L0 5L5 10L0 15L5 20L10 15L15 20L20 15L15 10L20 5L15 0L10 5Z" fill="#a656fd"/></g><rect x="162.6470588235294" y="302.05882352941177" width="23.235294117647058" height="23.235294117647058" fill="#ffffff00"/><g transform="translate(162.65,313.68) scale(0.581) rotate(0)"><path d="M10 5L5 0L0 5L5 10L0 15L5 20L10 15L15 20L20 15L15 10L20 5L15 0L10 5Z" fill="#e6c642"/></g><g transform="translate(185.88,302.06) scale(1.162) rotate(0)"><path d="M10 5L5 0L0 5L5 10L0 15L5 20L10 15L15 20L20 15L15 10L20 5L15 0L10 5Z" fill="#e6c642"/></g><rect x="0" y="325.2941176470588" width="23.235294117647058" height="23.235294117647058" fill="#ffffff00"/><g transform="translate(11.62,325.29) scale(0.581) rotate(0)"><path d="M10 5L5 0L0 5L5 10L0 15L5 20L10 15L15 20L20 15L15 10L20 5L15 0L10 5Z" fill="#3ce956"/></g><g transform="translate(23.24,325.29) scale(1.162) rotate(0)"><path d="M10 5L5 0L0 5L5 10L0 15L5 20L10 15L15 20L20 15L15 10L20 5L15 0L10 5Z" fill="#f94e4e"/></g><rect x="46.470588235294116" y="325.2941176470588" width="23.235294117647058" height="23.235294117647058" fill="#ffffff00"/><g transform="translate(46.47,325.29) scale(0.581) rotate(0)"><path d="M10 5L5 0L0 5L5 10L0 15L5 20L10 15L15 20L20 15L15 10L20 5L15 0L10 5Z" fill="#f94e4e"/></g><g transform="translate(58.09,325.29) scale(0.581) rotate(0)"><path d="M10 5L5 0L0 5L5 10L0 15L5 20L10 15L15 20L20 15L15 10L20 5L15 0L10 5Z" fill="#3ce956"/></g><g transform="translate(46.47,336.91) scale(0.581) rotate(0)"><path d="M10 5L5 0L0 5L5 10L0 15L5 20L10 15L15 20L20 15L15 10L20 5L15 0L10 5Z" fill="#e6c642"/></g><g transform="translate(139.41,325.29) scale(1.162) rotate(0)"><path d="M10 5L5 0L0 5L5 10L0 15L5 20L10 15L15 20L20 15L15 10L20 5L15 0L10 5Z" fill="#a656fd"/></g><rect x="162.6470588235294" y="325.2941176470588" width="23.235294117647058" height="23.235294117647058" fill="#ffffff00"/><g transform="translate(162.65,325.29) scale(0.581) rotate(0)"><path d="M10 5L5 0L0 5L5 10L0 15L5 20L10 15L15 20L20 15L15 10L20 5L15 0L10 5Z" fill="#f94e4e"/></g><g transform="translate(162.65,336.91) scale(0.581) rotate(0)"><path d="M10 5L5 0L0 5L5 10L0 15L5 20L10 15L15 20L20 15L15 10L20 5L15 0L10 5Z" fill="#3ce956"/></g><g transform="translate(174.26,336.91) scale(0.581) rotate(0)"><path d="M10 5L5 0L0 5L5 10L0 15L5 20L10 15L15 20L20 15L15 10L20 5L15 0L10 5Z" fill="#3ce956"/></g><rect x="185.88235294117646" y="325.2941176470588" width="23.235294117647058" height="23.235294117647058" fill="#ffffff00"/><g transform="translate(185.88,325.29) scale(0.581) rotate(0)"><path d="M10 5L5 0L0 5L5 10L0 15L5 20L10 15L15 20L20 15L15 10L20 5L15 0L10 5Z" fill="#e6c642"/></g><g transform="translate(197.5,325.29) scale(0.581) rotate(0)"><path d="M10 5L5 0L0 5L5 10L0 15L5 20L10 15L15 20L20 15L15 10L20 5L15 0L10 5Z" fill="#f94e4e"/></g><g transform="translate(185.88,336.91) scale(0.581) rotate(0)"><path d="M10 5L5 0L0 5L5 10L0 15L5 20L10 15L15 20L20 15L15 10L20 5L15 0L10 5Z" fill="#e6c642"/></g><g transform="translate(197.5,336.91) scale(0.581) rotate(0)"><path d="M10 5L5 0L0 5L5 10L0 15L5 20L10 15L15 20L20 15L15 10L20 5L15 0L10 5Z" fill="#307de7"/></g><g transform="translate(0,348.53) scale(1.162) rotate(0)"><path d="M10 5L5 0L0 5L5 10L0 15L5 20L10 15L15 20L20 15L15 10L20 5L15 0L10 5Z" fill="#307de7"/></g><g transform="translate(46.47,348.53) scale(1.162) rotate(0)"><path d="M10 5L5 0L0 5L5 10L0 15L5 20L10 15L15 20L20 15L15 10L20 5L15 0L10 5Z" fill="#307de7"/></g><rect x="116.17647058823529" y="348.52941176470586" width="23.235294117647058" height="23.235294117647058" fill="#ffffff00"/><g transform="translate(116.18,348.53) scale(0.581) rotate(0)"><path d="M10 5L5 0L0 5L5 10L0 15L5 20L10 15L15 20L20 15L15 10L20 5L15 0L10 5Z" fill="#307de7"/></g><g transform="translate(116.18,360.15) scale(0.581) rotate(0)"><path d="M10 5L5 0L0 5L5 10L0 15L5 20L10 15L15 20L20 15L15 10L20 5L15 0L10 5Z" fill="#307de7"/></g><g transform="translate(139.41,348.53) scale(1.162) rotate(0)"><path d="M10 5L5 0L0 5L5 10L0 15L5 20L10 15L15 20L20 15L15 10L20 5L15 0L10 5Z" fill="#f94e4e"/></g><g transform="translate(0,371.76) scale(1.162) rotate(0)"><path d="M10 5L5 0L0 5L5 10L0 15L5 20L10 15L15 20L20 15L15 10L20 5L15 0L10 5Z" fill="#f94e4e"/></g><g transform="translate(23.24,371.76) scale(1.162) rotate(0)"><path d="M10 5L5 0L0 5L5 10L0 15L5 20L10 15L15 20L20 15L15 10L20 5L15 0L10 5Z" fill="#f94e4e"/></g><rect x="46.470588235294116" y="371.7647058823529" width="23.235294117647058" height="23.235294117647058" fill="#ffffff00"/><g transform="translate(46.47,371.76) scale(0.581) rotate(0)"><path d="M10 5L5 0L0 5L5 10L0 15L5 20L10 15L15 20L20 15L15 10L20 5L15 0L10 5Z" fill="#307de7"/></g><g transform="translate(58.09,371.76) scale(0.581) rotate(0)"><path d="M10 5L5 0L0 5L5 10L0 15L5 20L10 15L15 20L20 15L15 10L20 5L15 0L10 5Z" fill="#f94e4e"/></g><g transform="translate(46.47,383.38) scale(0.581) rotate(0)"><path d="M10 5L5 0L0 5L5 10L0 15L5 20L10 15L15 20L20 15L15 10L20 5L15 0L10 5Z" fill="#e6c642"/></g><g transform="translate(58.09,383.38) scale(0.581) rotate(0)"><path d="M10 5L5 0L0 5L5 10L0 15L5 20L10 15L15 20L20 15L15 10L20 5L15 0L10 5Z" fill="#307de7"/></g><g transform="translate(69.71,371.76) scale(1.162) rotate(0)"><path d="M10 5L5 0L0 5L5 10L0 15L5 20L10 15L15 20L20 15L15 10L20 5L15 0L10 5Z" fill="#e6c642"/></g><g transform="translate(92.94,371.76) scale(1.162) rotate(0)"><path d="M10 5L5 0L0 5L5 10L0 15L5 20L10 15L15 20L20 15L15 10L20 5L15 0L10 5Z" fill="#3ce956"/></g><rect x="116.17647058823529" y="371.7647058823529" width="23.235294117647058" height="23.235294117647058" fill="#ffffff00"/><g transform="translate(116.18,371.76) scale(0.581) rotate(0)"><path d="M10 5L5 0L0 5L5 10L0 15L5 20L10 15L15 20L20 15L15 10L20 5L15 0L10 5Z" fill="#307de7"/></g><g transform="translate(127.79,371.76) scale(0.581) rotate(0)"><path d="M10 5L5 0L0 5L5 10L0 15L5 20L10 15L15 20L20 15L15 10L20 5L15 0L10 5Z" fill="#e6c642"/></g><g transform="translate(116.18,383.38) scale(0.581) rotate(0)"><path d="M10 5L5 0L0 5L5 10L0 15L5 20L10 15L15 20L20 15L15 10L20 5L15 0L10 5Z" fill="#a656fd"/></g><g transform="translate(127.79,383.38) scale(0.581) rotate(0)"><path d="M10 5L5 0L0 5L5 10L0 15L5 20L10 15L15 20L20 15L15 10L20 5L15 0L10 5Z" fill="#3ce956"/></g></g></svg>