<?xml version="1.0" standalone="no"?><svg xmlns:xlink="http://www.w3.org/1999/xlink" xmlns="http://www.w3.org/2000/svg" viewBox="0 0 1000 545.4625798861019" preserveAspectRatio="xMaxYMax slice"><g transform="scale(1.3809179237622833)"><rect x="0" y="0" width="724.1666666666666" height="395" fill="#f5fdff"/><g transform="translate(13.17,13.17) scale(0.329) rotate(0)"><path d="M10 5L5 0L0 5L5 10L0 15L5 20L10 15L15 20L20 15L15 10L20 5L15 0L10 5Z" fill="#f6cbcc"/></g><g transform="translate(46.08,13.17) scale(0.329) rotate(0)"><path d="M10 5L5 0L0 5L5 10L0 15L5 20L10 15L15 20L20 15L15 10L20 5L15 0L10 5Z" fill="#e9d26a"/></g><g transform="translate(79,13.17) scale(0.329) rotate(0)"><path d="M10 5L5 0L0 5L5 10L0 15L5 20L10 15L15 20L20 15L15 10L20 5L15 0L10 5Z" fill="#9cc3f4"/></g><g transform="translate(111.92,13.17) scale(0.329) rotate(0)"><path d="M10 5L5 0L0 5L5 10L0 15L5 20L10 15L15 20L20 15L15 10L20 5L15 0L10 5Z" fill="#f95e5e"/></g><circle cx="148.12" cy="16.46" r="3.29" fill="#c7f8d5"/><circle cx="181.04" cy="16.46" r="3.29" fill="#ead576"/><circle cx="213.95999999999998" cy="16.46" r="3.29" fill="#efe8b5"/><circle cx="246.87" cy="16.46" r="3.29" fill="#c0daf9"/><g transform="translate(276.5,13.17) scale(0.329) rotate(0)"><path d="M10 5L5 0L0 5L5 10L0 15L5 20L10 15L15 20L20 15L15 10L20 5L15 0L10 5Z" fill="#e9e4ff"/></g><circle cx="312.71000000000004" cy="16.46" r="3.29" fill="#f1fafe"/><circle cx="345.62" cy="16.46" r="3.29" fill="#e6ddff"/><circle cx="378.54" cy="16.46" r="3.29" fill="#e6fbf2"/><circle cx="411.46000000000004" cy="16.46" r="3.29" fill="#cda9fe"/><g transform="translate(441.08,13.17) scale(0.329) rotate(0)"><path d="M10 5L5 0L0 5L5 10L0 15L5 20L10 15L15 20L20 15L15 10L20 5L15 0L10 5Z" fill="#75aaef"/></g><circle cx="477.29" cy="16.46" r="3.29" fill="#f6bebf"/><circle cx="510.21000000000004" cy="16.46" r="3.29" fill="#e0fbec"/><g transform="translate(539.83,13.17) scale(0.329) rotate(0)"><path d="M10 5L5 0L0 5L5 10L0 15L5 20L10 15L15 20L20 15L15 10L20 5L15 0L10 5Z" fill="#619ded"/></g><circle cx="576.04" cy="16.46" r="3.29" fill="#d1b0fe"/><circle cx="608.9599999999999" cy="16.46" r="3.29" fill="#c9a1fe"/><g transform="translate(638.58,13.17) scale(0.329) rotate(0)"><path d="M10 5L5 0L0 5L5 10L0 15L5 20L10 15L15 20L20 15L15 10L20 5L15 0L10 5Z" fill="#d9c2fe"/></g><circle cx="674.79" cy="16.46" r="3.29" fill="#77abf0"/><circle cx="707.7099999999999" cy="16.46" r="3.29" fill="#daecfc"/><g transform="translate(13.17,46.08) scale(0.329) rotate(0)"><path d="M10 5L5 0L0 5L5 10L0 15L5 20L10 15L15 20L20 15L15 10L20 5L15 0L10 5Z" fill="#f86e6e"/></g><g transform="translate(46.08,46.08) scale(0.329) rotate(0)"><path d="M10 5L5 0L0 5L5 10L0 15L5 20L10 15L15 20L20 15L15 10L20 5L15 0L10 5Z" fill="#f7a3a4"/></g><g transform="translate(79,46.08) scale(0.329) rotate(0)"><path d="M10 5L5 0L0 5L5 10L0 15L5 20L10 15L15 20L20 15L15 10L20 5L15 0L10 5Z" fill="#67ee7e"/></g><circle cx="115.21000000000001" cy="49.37" r="3.29" fill="#f5ebed"/><circle cx="148.12" cy="49.37" r="3.29" fill="#e9e3ff"/><circle cx="181.04" cy="49.37" r="3.29" fill="#d7eafb"/><g transform="translate(210.67,46.08) scale(0.329) rotate(0)"><path d="M10 5L5 0L0 5L5 10L0 15L5 20L10 15L15 20L20 15L15 10L20 5L15 0L10 5Z" fill="#f0eabf"/></g><g transform="translate(243.58,46.08) scale(0.329) rotate(0)"><path d="M10 5L5 0L0 5L5 10L0 15L5 20L10 15L15 20L20 15L15 10L20 5L15 0L10 5Z" fill="#f6e0e1"/></g><g transform="translate(276.5,46.08) scale(0.329) rotate(0)"><path d="M10 5L5 0L0 5L5 10L0 15L5 20L10 15L15 20L20 15L15 10L20 5L15 0L10 5Z" fill="#e2f1fd"/></g><g transform="translate(309.42,46.08) scale(0.329) rotate(0)"><path d="M10 5L5 0L0 5L5 10L0 15L5 20L10 15L15 20L20 15L15 10L20 5L15 0L10 5Z" fill="#e7c94e"/></g><circle cx="345.62" cy="49.37" r="3.29" fill="#d7befe"/><g transform="translate(375.25,46.08) scale(0.329) rotate(0)"><path d="M10 5L5 0L0 5L5 10L0 15L5 20L10 15L15 20L20 15L15 10L20 5L15 0L10 5Z" fill="#5b99ec"/></g><circle cx="411.46000000000004" cy="49.37" r="3.29" fill="#ecfcf7"/><circle cx="444.37" cy="49.37" r="3.29" fill="#f7a0a1"/><g transform="translate(474,46.08) scale(0.329) rotate(0)"><path d="M10 5L5 0L0 5L5 10L0 15L5 20L10 15L15 20L20 15L15 10L20 5L15 0L10 5Z" fill="#a656fd"/></g><g transform="translate(506.92,46.08) scale(0.329) rotate(0)"><path d="M10 5L5 0L0 5L5 10L0 15L5 20L10 15L15 20L20 15L15 10L20 5L15 0L10 5Z" fill="#85b4f1"/></g><circle cx="543.12" cy="49.37" r="3.29" fill="#f96060"/><g transform="translate(572.75,46.08) scale(0.329) rotate(0)"><path d="M10 5L5 0L0 5L5 10L0 15L5 20L10 15L15 20L20 15L15 10L20 5L15 0L10 5Z" fill="#e8e2ff"/></g><g transform="translate(605.67,46.08) scale(0.329) rotate(0)"><path d="M10 5L5 0L0 5L5 10L0 15L5 20L10 15L15 20L20 15L15 10L20 5L15 0L10 5Z" fill="#f5edef"/></g><circle cx="641.87" cy="49.37" r="3.29" fill="#f6d2d4"/><g transform="translate(671.5,46.08) scale(0.329) rotate(0)"><path d="M10 5L5 0L0 5L5 10L0 15L5 20L10 15L15 20L20 15L15 10L20 5L15 0L10 5Z" fill="#edde95"/></g><g transform="translate(704.42,46.08) scale(0.329) rotate(0)"><path d="M10 5L5 0L0 5L5 10L0 15L5 20L10 15L15 20L20 15L15 10L20 5L15 0L10 5Z" fill="#c79cfe"/></g><circle cx="16.46" cy="82.29" r="3.29" fill="#49ea62"/><circle cx="49.37" cy="82.29" r="3.29" fill="#f1f0d2"/><circle cx="82.29" cy="82.29" r="3.29" fill="#69ee7f"/><g transform="translate(111.92,79) scale(0.329) rotate(0)"><path d="M10 5L5 0L0 5L5 10L0 15L5 20L10 15L15 20L20 15L15 10L20 5L15 0L10 5Z" fill="#aef5be"/></g><circle cx="148.12" cy="82.29" r="3.29" fill="#ebf7fe"/><g transform="translate(177.75,79) scale(0.329) rotate(0)"><path d="M10 5L5 0L0 5L5 10L0 15L5 20L10 15L15 20L20 15L15 10L20 5L15 0L10 5Z" fill="#c8f8d6"/></g><g transform="translate(210.67,79) scale(0.329) rotate(0)"><path d="M10 5L5 0L0 5L5 10L0 15L5 20L10 15L15 20L20 15L15 10L20 5L15 0L10 5Z" fill="#f5eff1"/></g><circle cx="246.87" cy="82.29" r="3.29" fill="#ddcafe"/><circle cx="279.79" cy="82.29" r="3.29" fill="#94f2a6"/><circle cx="312.71000000000004" cy="82.29" r="3.29" fill="#b97dfd"/><g transform="translate(342.33,79) scale(0.329) rotate(0)"><path d="M10 5L5 0L0 5L5 10L0 15L5 20L10 15L15 20L20 15L15 10L20 5L15 0L10 5Z" fill="#f6c1c2"/></g><circle cx="378.54" cy="82.29" r="3.29" fill="#66ee7c"/><g transform="translate(408.17,79) scale(0.329) rotate(0)"><path d="M10 5L5 0L0 5L5 10L0 15L5 20L10 15L15 20L20 15L15 10L20 5L15 0L10 5Z" fill="#f3f6e8"/></g><g transform="translate(441.08,79) scale(0.329) rotate(0)"><path d="M10 5L5 0L0 5L5 10L0 15L5 20L10 15L15 20L20 15L15 10L20 5L15 0L10 5Z" fill="#ddfae9"/></g><circle cx="477.29" cy="82.29" r="3.29" fill="#f87575"/><circle cx="510.21000000000004" cy="82.29" r="3.29" fill="#f7babb"/><g transform="translate(539.83,79) scale(0.329) rotate(0)"><path d="M10 5L5 0L0 5L5 10L0 15L5 20L10 15L15 20L20 15L15 10L20 5L15 0L10 5Z" fill="#7fb1f1"/></g><g transform="translate(572.75,79) scale(0.329) rotate(0)"><path d="M10 5L5 0L0 5L5 10L0 15L5 20L10 15L15 20L20 15L15 10L20 5L15 0L10 5Z" fill="#86b5f1"/></g><g transform="translate(605.67,79) scale(0.329) rotate(0)"><path d="M10 5L5 0L0 5L5 10L0 15L5 20L10 15L15 20L20 15L15 10L20 5L15 0L10 5Z" fill="#9dc4f4"/></g><circle cx="641.87" cy="82.29" r="3.29" fill="#f96464"/><g transform="translate(671.5,79) scale(0.329) rotate(0)"><path d="M10 5L5 0L0 5L5 10L0 15L5 20L10 15L15 20L20 15L15 10L20 5L15 0L10 5Z" fill="#91f2a4"/></g><g transform="translate(704.42,79) scale(0.329) rotate(0)"><path d="M10 5L5 0L0 5L5 10L0 15L5 20L10 15L15 20L20 15L15 10L20 5L15 0L10 5Z" fill="#bbd7f8"/></g><g transform="translate(13.17,111.92) scale(0.329) rotate(0)"><path d="M10 5L5 0L0 5L5 10L0 15L5 20L10 15L15 20L20 15L15 10L20 5L15 0L10 5Z" fill="#5595eb"/></g><circle cx="49.37" cy="115.21000000000001" r="3.29" fill="#9af3ac"/><g transform="translate(79,111.92) scale(0.329) rotate(0)"><path d="M10 5L5 0L0 5L5 10L0 15L5 20L10 15L15 20L20 15L15 10L20 5L15 0L10 5Z" fill="#f4f9f0"/></g><g transform="translate(111.92,111.92) scale(0.329) rotate(0)"><path d="M10 5L5 0L0 5L5 10L0 15L5 20L10 15L15 20L20 15L15 10L20 5L15 0L10 5Z" fill="#67a1ee"/></g><circle cx="148.12" cy="115.21000000000001" r="3.29" fill="#f1efce"/><circle cx="181.04" cy="115.21000000000001" r="3.29" fill="#cda9fe"/><g transform="translate(210.67,111.92) scale(0.329) rotate(0)"><path d="M10 5L5 0L0 5L5 10L0 15L5 20L10 15L15 20L20 15L15 10L20 5L15 0L10 5Z" fill="#efe6b0"/></g><circle cx="246.87" cy="115.21000000000001" r="3.29" fill="#f7a1a2"/><g transform="translate(276.5,111.92) scale(0.329) rotate(0)"><path d="M10 5L5 0L0 5L5 10L0 15L5 20L10 15L15 20L20 15L15 10L20 5L15 0L10 5Z" fill="#80b1f1"/></g><circle cx="312.71000000000004" cy="115.21000000000001" r="3.29" fill="#f0f1ff"/><circle cx="345.62" cy="115.21000000000001" r="3.29" fill="#e3d7ff"/><circle cx="378.54" cy="115.21000000000001" r="3.29" fill="#f7a5a6"/><circle cx="411.46000000000004" cy="115.21000000000001" r="3.29" fill="#7eaff0"/><g transform="translate(441.08,111.92) scale(0.329) rotate(0)"><path d="M10 5L5 0L0 5L5 10L0 15L5 20L10 15L15 20L20 15L15 10L20 5L15 0L10 5Z" fill="#3581e8"/></g><g transform="translate(474,111.92) scale(0.329) rotate(0)"><path d="M10 5L5 0L0 5L5 10L0 15L5 20L10 15L15 20L20 15L15 10L20 5L15 0L10 5Z" fill="#9cc3f4"/></g><circle cx="510.21000000000004" cy="115.21000000000001" r="3.29" fill="#c7f8d5"/><g transform="translate(539.83,111.92) scale(0.329) rotate(0)"><path d="M10 5L5 0L0 5L5 10L0 15L5 20L10 15L15 20L20 15L15 10L20 5L15 0L10 5Z" fill="#f0ecc3"/></g><g transform="translate(572.75,111.92) scale(0.329) rotate(0)"><path d="M10 5L5 0L0 5L5 10L0 15L5 20L10 15L15 20L20 15L15 10L20 5L15 0L10 5Z" fill="#f95454"/></g><g transform="translate(605.67,111.92) scale(0.329) rotate(0)"><path d="M10 5L5 0L0 5L5 10L0 15L5 20L10 15L15 20L20 15L15 10L20 5L15 0L10 5Z" fill="#adcef6"/></g><circle cx="641.87" cy="115.21000000000001" r="3.29" fill="#a8cbf6"/><g transform="translate(671.5,111.92) scale(0.329) rotate(0)"><path d="M10 5L5 0L0 5L5 10L0 15L5 20L10 15L15 20L20 15L15 10L20 5L15 0L10 5Z" fill="#c3f8d1"/></g><circle cx="707.7099999999999" cy="115.21000000000001" r="3.29" fill="#dac5fe"/><g transform="translate(13.17,144.83) scale(0.329) rotate(0)"><path d="M10 5L5 0L0 5L5 10L0 15L5 20L10 15L15 20L20 15L15 10L20 5L15 0L10 5Z" fill="#f7b1b3"/></g><circle cx="49.37" cy="148.12" r="3.29" fill="#ddfae9"/><circle cx="82.29" cy="148.12" r="3.29" fill="#f2f7ff"/><circle cx="115.21000000000001" cy="148.12" r="3.29" fill="#80f094"/><circle cx="148.12" cy="148.12" r="3.29" fill="#f79394"/><circle cx="181.04" cy="148.12" r="3.29" fill="#7daff0"/><g transform="translate(210.67,144.83) scale(0.329) rotate(0)"><path d="M10 5L5 0L0 5L5 10L0 15L5 20L10 15L15 20L20 15L15 10L20 5L15 0L10 5Z" fill="#f5f8fa"/></g><g transform="translate(243.58,144.83) scale(0.329) rotate(0)"><path d="M10 5L5 0L0 5L5 10L0 15L5 20L10 15L15 20L20 15L15 10L20 5L15 0L10 5Z" fill="#f87d7e"/></g><circle cx="279.79" cy="148.12" r="3.29" fill="#b06bfd"/><circle cx="312.71000000000004" cy="148.12" r="3.29" fill="#f7b8b9"/><circle cx="345.62" cy="148.12" r="3.29" fill="#a8cbf6"/><g transform="translate(375.25,144.83) scale(0.329) rotate(0)"><path d="M10 5L5 0L0 5L5 10L0 15L5 20L10 15L15 20L20 15L15 10L20 5L15 0L10 5Z" fill="#e8e1ff"/></g><g transform="translate(408.17,144.83) scale(0.329) rotate(0)"><path d="M10 5L5 0L0 5L5 10L0 15L5 20L10 15L15 20L20 15L15 10L20 5L15 0L10 5Z" fill="#4aea62"/></g><circle cx="444.37" cy="148.12" r="3.29" fill="#e8ce5d"/><circle cx="477.29" cy="148.12" r="3.29" fill="#e6ddff"/><g transform="translate(506.92,144.83) scale(0.329) rotate(0)"><path d="M10 5L5 0L0 5L5 10L0 15L5 20L10 15L15 20L20 15L15 10L20 5L15 0L10 5Z" fill="#f4f8ed"/></g><g transform="translate(539.83,144.83) scale(0.329) rotate(0)"><path d="M10 5L5 0L0 5L5 10L0 15L5 20L10 15L15 20L20 15L15 10L20 5L15 0L10 5Z" fill="#f1fdfb"/></g><circle cx="576.04" cy="148.12" r="3.29" fill="#f6d3d4"/><circle cx="608.9599999999999" cy="148.12" r="3.29" fill="#e0d1fe"/><g transform="translate(638.58,144.83) scale(0.329) rotate(0)"><path d="M10 5L5 0L0 5L5 10L0 15L5 20L10 15L15 20L20 15L15 10L20 5L15 0L10 5Z" fill="#b97efd"/></g><g transform="translate(671.5,144.83) scale(0.329) rotate(0)"><path d="M10 5L5 0L0 5L5 10L0 15L5 20L10 15L15 20L20 15L15 10L20 5L15 0L10 5Z" fill="#adf5be"/></g><circle cx="707.7099999999999" cy="148.12" r="3.29" fill="#bad7f8"/><g transform="translate(13.17,177.75) scale(0.329) rotate(0)"><path d="M10 5L5 0L0 5L5 10L0 15L5 20L10 15L15 20L20 15L15 10L20 5L15 0L10 5Z" fill="#4beb63"/></g><g transform="translate(46.08,177.75) scale(0.329) rotate(0)"><path d="M10 5L5 0L0 5L5 10L0 15L5 20L10 15L15 20L20 15L15 10L20 5L15 0L10 5Z" fill="#b7f6c7"/></g><circle cx="82.29" cy="181.04" r="3.29" fill="#a4f4b5"/><g transform="translate(111.92,177.75) scale(0.329) rotate(0)"><path d="M10 5L5 0L0 5L5 10L0 15L5 20L10 15L15 20L20 15L15 10L20 5L15 0L10 5Z" fill="#6da4ee"/></g><g transform="translate(144.83,177.75) scale(0.329) rotate(0)"><path d="M10 5L5 0L0 5L5 10L0 15L5 20L10 15L15 20L20 15L15 10L20 5L15 0L10 5Z" fill="#f3f4e0"/></g><g transform="translate(177.75,177.75) scale(0.329) rotate(0)"><path d="M10 5L5 0L0 5L5 10L0 15L5 20L10 15L15 20L20 15L15 10L20 5L15 0L10 5Z" fill="#c1f7d0"/></g><circle cx="213.95999999999998" cy="181.04" r="3.29" fill="#458bea"/><g transform="translate(243.58,177.75) scale(0.329) rotate(0)"><path d="M10 5L5 0L0 5L5 10L0 15L5 20L10 15L15 20L20 15L15 10L20 5L15 0L10 5Z" fill="#b371fd"/></g><circle cx="279.79" cy="181.04" r="3.29" fill="#93f2a5"/><g transform="translate(309.42,177.75) scale(0.329) rotate(0)"><path d="M10 5L5 0L0 5L5 10L0 15L5 20L10 15L15 20L20 15L15 10L20 5L15 0L10 5Z" fill="#e7fbf2"/></g><g transform="translate(342.33,177.75) scale(0.329) rotate(0)"><path d="M10 5L5 0L0 5L5 10L0 15L5 20L10 15L15 20L20 15L15 10L20 5L15 0L10 5Z" fill="#50eb68"/></g><circle cx="378.54" cy="181.04" r="3.29" fill="#8df2a0"/><circle cx="411.46000000000004" cy="181.04" r="3.29" fill="#f5f7f9"/><circle cx="444.37" cy="181.04" r="3.29" fill="#be89fe"/><circle cx="477.29" cy="181.04" r="3.29" fill="#c5f8d3"/><g transform="translate(506.92,177.75) scale(0.329) rotate(0)"><path d="M10 5L5 0L0 5L5 10L0 15L5 20L10 15L15 20L20 15L15 10L20 5L15 0L10 5Z" fill="#dac4fe"/></g><circle cx="543.12" cy="181.04" r="3.29" fill="#f1eecb"/><g transform="translate(572.75,177.75) scale(0.329) rotate(0)"><path d="M10 5L5 0L0 5L5 10L0 15L5 20L10 15L15 20L20 15L15 10L20 5L15 0L10 5Z" fill="#f7b9ba"/></g><g transform="translate(605.67,177.75) scale(0.329) rotate(0)"><path d="M10 5L5 0L0 5L5 10L0 15L5 20L10 15L15 20L20 15L15 10L20 5L15 0L10 5Z" fill="#f4fbff"/></g><circle cx="641.87" cy="181.04" r="3.29" fill="#ede19d"/><g transform="translate(671.5,177.75) scale(0.329) rotate(0)"><path d="M10 5L5 0L0 5L5 10L0 15L5 20L10 15L15 20L20 15L15 10L20 5L15 0L10 5Z" fill="#c5def9"/></g><g transform="translate(704.42,177.75) scale(0.329) rotate(0)"><path d="M10 5L5 0L0 5L5 10L0 15L5 20L10 15L15 20L20 15L15 10L20 5L15 0L10 5Z" fill="#ad65fd"/></g><circle cx="16.46" cy="213.95999999999998" r="3.29" fill="#9ec4f4"/><circle cx="49.37" cy="213.95999999999998" r="3.29" fill="#af6afd"/><circle cx="82.29" cy="213.95999999999998" r="3.29" fill="#74a9ef"/><g transform="translate(111.92,210.67) scale(0.329) rotate(0)"><path d="M10 5L5 0L0 5L5 10L0 15L5 20L10 15L15 20L20 15L15 10L20 5L15 0L10 5Z" fill="#3e86e9"/></g><g transform="translate(144.83,210.67) scale(0.329) rotate(0)"><path d="M10 5L5 0L0 5L5 10L0 15L5 20L10 15L15 20L20 15L15 10L20 5L15 0L10 5Z" fill="#e7f4fd"/></g><g transform="translate(177.75,210.67) scale(0.329) rotate(0)"><path d="M10 5L5 0L0 5L5 10L0 15L5 20L10 15L15 20L20 15L15 10L20 5L15 0L10 5Z" fill="#c190fe"/></g><circle cx="213.95999999999998" cy="213.95999999999998" r="3.29" fill="#ab61fd"/><circle cx="246.87" cy="213.95999999999998" r="3.29" fill="#d0affe"/><g transform="translate(276.5,210.67) scale(0.329) rotate(0)"><path d="M10 5L5 0L0 5L5 10L0 15L5 20L10 15L15 20L20 15L15 10L20 5L15 0L10 5Z" fill="#9ef4af"/></g><g transform="translate(309.42,210.67) scale(0.329) rotate(0)"><path d="M10 5L5 0L0 5L5 10L0 15L5 20L10 15L15 20L20 15L15 10L20 5L15 0L10 5Z" fill="#83f197"/></g><g transform="translate(342.33,210.67) scale(0.329) rotate(0)"><path d="M10 5L5 0L0 5L5 10L0 15L5 20L10 15L15 20L20 15L15 10L20 5L15 0L10 5Z" fill="#eae6ff"/></g><g transform="translate(375.25,210.67) scale(0.329) rotate(0)"><path d="M10 5L5 0L0 5L5 10L0 15L5 20L10 15L15 20L20 15L15 10L20 5L15 0L10 5Z" fill="#f6e4e5"/></g><circle cx="411.46000000000004" cy="213.95999999999998" r="3.29" fill="#4f91eb"/><circle cx="444.37" cy="213.95999999999998" r="3.29" fill="#e8ce5e"/><g transform="translate(474,210.67) scale(0.329) rotate(0)"><path d="M10 5L5 0L0 5L5 10L0 15L5 20L10 15L15 20L20 15L15 10L20 5L15 0L10 5Z" fill="#e9f5fe"/></g><g transform="translate(506.92,210.67) scale(0.329) rotate(0)"><path d="M10 5L5 0L0 5L5 10L0 15L5 20L10 15L15 20L20 15L15 10L20 5L15 0L10 5Z" fill="#c2f7d0"/></g><g transform="translate(539.83,210.67) scale(0.329) rotate(0)"><path d="M10 5L5 0L0 5L5 10L0 15L5 20L10 15L15 20L20 15L15 10L20 5L15 0L10 5Z" fill="#bef7cd"/></g><circle cx="576.04" cy="213.95999999999998" r="3.29" fill="#e0fbec"/><g transform="translate(605.67,210.67) scale(0.329) rotate(0)"><path d="M10 5L5 0L0 5L5 10L0 15L5 20L10 15L15 20L20 15L15 10L20 5L15 0L10 5Z" fill="#ecdd90"/></g><circle cx="641.87" cy="213.95999999999998" r="3.29" fill="#a5f4b6"/><circle cx="674.79" cy="213.95999999999998" r="3.29" fill="#f0eabf"/><g transform="translate(704.42,210.67) scale(0.329) rotate(0)"><path d="M10 5L5 0L0 5L5 10L0 15L5 20L10 15L15 20L20 15L15 10L20 5L15 0L10 5Z" fill="#86f199"/></g><circle cx="16.46" cy="246.87" r="3.29" fill="#b9f7c8"/><circle cx="49.37" cy="246.87" r="3.29" fill="#f0e9ba"/><g transform="translate(79,243.58) scale(0.329) rotate(0)"><path d="M10 5L5 0L0 5L5 10L0 15L5 20L10 15L15 20L20 15L15 10L20 5L15 0L10 5Z" fill="#d3f9e0"/></g><g transform="translate(111.92,243.58) scale(0.329) rotate(0)"><path d="M10 5L5 0L0 5L5 10L0 15L5 20L10 15L15 20L20 15L15 10L20 5L15 0L10 5Z" fill="#efe6af"/></g><g transform="translate(144.83,243.58) scale(0.329) rotate(0)"><path d="M10 5L5 0L0 5L5 10L0 15L5 20L10 15L15 20L20 15L15 10L20 5L15 0L10 5Z" fill="#70a7ef"/></g><circle cx="181.04" cy="246.87" r="3.29" fill="#f3f7ec"/><g transform="translate(210.67,243.58) scale(0.329) rotate(0)"><path d="M10 5L5 0L0 5L5 10L0 15L5 20L10 15L15 20L20 15L15 10L20 5L15 0L10 5Z" fill="#a4f4b5"/></g><g transform="translate(243.58,243.58) scale(0.329) rotate(0)"><path d="M10 5L5 0L0 5L5 10L0 15L5 20L10 15L15 20L20 15L15 10L20 5L15 0L10 5Z" fill="#eee3a5"/></g><circle cx="279.79" cy="246.87" r="3.29" fill="#8bb8f2"/><circle cx="312.71000000000004" cy="246.87" r="3.29" fill="#ebda87"/><circle cx="345.62" cy="246.87" r="3.29" fill="#c598fe"/><g transform="translate(375.25,243.58) scale(0.329) rotate(0)"><path d="M10 5L5 0L0 5L5 10L0 15L5 20L10 15L15 20L20 15L15 10L20 5L15 0L10 5Z" fill="#cbf9d9"/></g><circle cx="411.46000000000004" cy="246.87" r="3.29" fill="#efe8b8"/><circle cx="444.37" cy="246.87" r="3.29" fill="#f6e7e8"/><circle cx="477.29" cy="246.87" r="3.29" fill="#a3c7f5"/><g transform="translate(506.92,243.58) scale(0.329) rotate(0)"><path d="M10 5L5 0L0 5L5 10L0 15L5 20L10 15L15 20L20 15L15 10L20 5L15 0L10 5Z" fill="#f3f4e0"/></g><circle cx="543.12" cy="246.87" r="3.29" fill="#f88c8c"/><g transform="translate(572.75,243.58) scale(0.329) rotate(0)"><path d="M10 5L5 0L0 5L5 10L0 15L5 20L10 15L15 20L20 15L15 10L20 5L15 0L10 5Z" fill="#f5f5f7"/></g><g transform="translate(605.67,243.58) scale(0.329) rotate(0)"><path d="M10 5L5 0L0 5L5 10L0 15L5 20L10 15L15 20L20 15L15 10L20 5L15 0L10 5Z" fill="#f0e9bb"/></g><g transform="translate(638.58,243.58) scale(0.329) rotate(0)"><path d="M10 5L5 0L0 5L5 10L0 15L5 20L10 15L15 20L20 15L15 10L20 5L15 0L10 5Z" fill="#75aaef"/></g><circle cx="674.79" cy="246.87" r="3.29" fill="#ceabfe"/><g transform="translate(704.42,243.58) scale(0.329) rotate(0)"><path d="M10 5L5 0L0 5L5 10L0 15L5 20L10 15L15 20L20 15L15 10L20 5L15 0L10 5Z" fill="#67ee7d"/></g><g transform="translate(13.17,276.5) scale(0.329) rotate(0)"><path d="M10 5L5 0L0 5L5 10L0 15L5 20L10 15L15 20L20 15L15 10L20 5L15 0L10 5Z" fill="#f4f9f3"/></g><circle cx="49.37" cy="279.79" r="3.29" fill="#f5f2f3"/><g transform="translate(79,276.5) scale(0.329) rotate(0)"><path d="M10 5L5 0L0 5L5 10L0 15L5 20L10 15L15 20L20 15L15 10L20 5L15 0L10 5Z" fill="#8df2a0"/></g><circle cx="115.21000000000001" cy="279.79" r="3.29" fill="#f87474"/><circle cx="148.12" cy="279.79" r="3.29" fill="#9ac2f4"/><circle cx="181.04" cy="279.79" r="3.29" fill="#4b8eea"/><circle cx="213.95999999999998" cy="279.79" r="3.29" fill="#f5f8fa"/><circle cx="246.87" cy="279.79" r="3.29" fill="#50eb68"/><circle cx="279.79" cy="279.79" r="3.29" fill="#c599fe"/><g transform="translate(309.42,276.5) scale(0.329) rotate(0)"><path d="M10 5L5 0L0 5L5 10L0 15L5 20L10 15L15 20L20 15L15 10L20 5L15 0L10 5Z" fill="#8df2a0"/></g><circle cx="345.62" cy="279.79" r="3.29" fill="#c292fe"/><circle cx="378.54" cy="279.79" r="3.29" fill="#ebd881"/><g transform="translate(408.17,276.5) scale(0.329) rotate(0)"><path d="M10 5L5 0L0 5L5 10L0 15L5 20L10 15L15 20L20 15L15 10L20 5L15 0L10 5Z" fill="#f6e5e6"/></g><g transform="translate(441.08,276.5) scale(0.329) rotate(0)"><path d="M10 5L5 0L0 5L5 10L0 15L5 20L10 15L15 20L20 15L15 10L20 5L15 0L10 5Z" fill="#f8696a"/></g><g transform="translate(474,276.5) scale(0.329) rotate(0)"><path d="M10 5L5 0L0 5L5 10L0 15L5 20L10 15L15 20L20 15L15 10L20 5L15 0L10 5Z" fill="#eee4ab"/></g><circle cx="510.21000000000004" cy="279.79" r="3.29" fill="#f7999a"/><circle cx="543.12" cy="279.79" r="3.29" fill="#7af08f"/><g transform="translate(572.75,276.5) scale(0.329) rotate(0)"><path d="M10 5L5 0L0 5L5 10L0 15L5 20L10 15L15 20L20 15L15 10L20 5L15 0L10 5Z" fill="#8bf29e"/></g><circle cx="608.9599999999999" cy="279.79" r="3.29" fill="#e4fbef"/><g transform="translate(638.58,276.5) scale(0.329) rotate(0)"><path d="M10 5L5 0L0 5L5 10L0 15L5 20L10 15L15 20L20 15L15 10L20 5L15 0L10 5Z" fill="#f88787"/></g><g transform="translate(671.5,276.5) scale(0.329) rotate(0)"><path d="M10 5L5 0L0 5L5 10L0 15L5 20L10 15L15 20L20 15L15 10L20 5L15 0L10 5Z" fill="#c598fe"/></g><circle cx="707.7099999999999" cy="279.79" r="3.29" fill="#ede09a"/><g transform="translate(13.17,309.42) scale(0.329) rotate(0)"><path d="M10 5L5 0L0 5L5 10L0 15L5 20L10 15L15 20L20 15L15 10L20 5L15 0L10 5Z" fill="#82f196"/></g><g transform="translate(46.08,309.42) scale(0.329) rotate(0)"><path d="M10 5L5 0L0 5L5 10L0 15L5 20L10 15L15 20L20 15L15 10L20 5L15 0L10 5Z" fill="#e8cc58"/></g><circle cx="82.29" cy="312.71000000000004" r="3.29" fill="#af6afd"/><g transform="translate(111.92,309.42) scale(0.329) rotate(0)"><path d="M10 5L5 0L0 5L5 10L0 15L5 20L10 15L15 20L20 15L15 10L20 5L15 0L10 5Z" fill="#eddf97"/></g><circle cx="148.12" cy="312.71000000000004" r="3.29" fill="#f95050"/><circle cx="181.04" cy="312.71000000000004" r="3.29" fill="#ead575"/><circle cx="213.95999999999998" cy="312.71000000000004" r="3.29" fill="#f5eff0"/><circle cx="246.87" cy="312.71000000000004" r="3.29" fill="#f5eced"/><circle cx="279.79" cy="312.71000000000004" r="3.29" fill="#e7cb55"/><circle cx="312.71000000000004" cy="312.71000000000004" r="3.29" fill="#d5fae2"/><g transform="translate(342.33,309.42) scale(0.329) rotate(0)"><path d="M10 5L5 0L0 5L5 10L0 15L5 20L10 15L15 20L20 15L15 10L20 5L15 0L10 5Z" fill="#f1eecb"/></g><circle cx="378.54" cy="312.71000000000004" r="3.29" fill="#c89dfe"/><circle cx="411.46000000000004" cy="312.71000000000004" r="3.29" fill="#f5fdff"/><g transform="translate(441.08,309.42) scale(0.329) rotate(0)"><path d="M10 5L5 0L0 5L5 10L0 15L5 20L10 15L15 20L20 15L15 10L20 5L15 0L10 5Z" fill="#a95dfd"/></g><circle cx="477.29" cy="312.71000000000004" r="3.29" fill="#aff5bf"/><circle cx="510.21000000000004" cy="312.71000000000004" r="3.29" fill="#b474fd"/><g transform="translate(539.83,309.42) scale(0.329) rotate(0)"><path d="M10 5L5 0L0 5L5 10L0 15L5 20L10 15L15 20L20 15L15 10L20 5L15 0L10 5Z" fill="#b9f7c8"/></g><circle cx="576.04" cy="312.71000000000004" r="3.29" fill="#efe9b9"/><g transform="translate(605.67,309.42) scale(0.329) rotate(0)"><path d="M10 5L5 0L0 5L5 10L0 15L5 20L10 15L15 20L20 15L15 10L20 5L15 0L10 5Z" fill="#7daff0"/></g><g transform="translate(638.58,309.42) scale(0.329) rotate(0)"><path d="M10 5L5 0L0 5L5 10L0 15L5 20L10 15L15 20L20 15L15 10L20 5L15 0L10 5Z" fill="#f6d6d7"/></g><circle cx="674.79" cy="312.71000000000004" r="3.29" fill="#ac62fd"/><g transform="translate(704.42,309.42) scale(0.329) rotate(0)"><path d="M10 5L5 0L0 5L5 10L0 15L5 20L10 15L15 20L20 15L15 10L20 5L15 0L10 5Z" fill="#f7bbbc"/></g><circle cx="16.46" cy="345.62" r="3.29" fill="#f6dfe0"/><g transform="translate(46.08,342.33) scale(0.329) rotate(0)"><path d="M10 5L5 0L0 5L5 10L0 15L5 20L10 15L15 20L20 15L15 10L20 5L15 0L10 5Z" fill="#f88f90"/></g><circle cx="82.29" cy="345.62" r="3.29" fill="#eae6ff"/><g transform="translate(111.92,342.33) scale(0.329) rotate(0)"><path d="M10 5L5 0L0 5L5 10L0 15L5 20L10 15L15 20L20 15L15 10L20 5L15 0L10 5Z" fill="#f2f7ff"/></g><g transform="translate(144.83,342.33) scale(0.329) rotate(0)"><path d="M10 5L5 0L0 5L5 10L0 15L5 20L10 15L15 20L20 15L15 10L20 5L15 0L10 5Z" fill="#f2f2db"/></g><g transform="translate(177.75,342.33) scale(0.329) rotate(0)"><path d="M10 5L5 0L0 5L5 10L0 15L5 20L10 15L15 20L20 15L15 10L20 5L15 0L10 5Z" fill="#438ae9"/></g><g transform="translate(210.67,342.33) scale(0.329) rotate(0)"><path d="M10 5L5 0L0 5L5 10L0 15L5 20L10 15L15 20L20 15L15 10L20 5L15 0L10 5Z" fill="#e7c84a"/></g><g transform="translate(243.58,342.33) scale(0.329) rotate(0)"><path d="M10 5L5 0L0 5L5 10L0 15L5 20L10 15L15 20L20 15L15 10L20 5L15 0L10 5Z" fill="#f95050"/></g><g transform="translate(276.5,342.33) scale(0.329) rotate(0)"><path d="M10 5L5 0L0 5L5 10L0 15L5 20L10 15L15 20L20 15L15 10L20 5L15 0L10 5Z" fill="#c0daf8"/></g><g transform="translate(309.42,342.33) scale(0.329) rotate(0)"><path d="M10 5L5 0L0 5L5 10L0 15L5 20L10 15L15 20L20 15L15 10L20 5L15 0L10 5Z" fill="#e2d4ff"/></g><g transform="translate(342.33,342.33) scale(0.329) rotate(0)"><path d="M10 5L5 0L0 5L5 10L0 15L5 20L10 15L15 20L20 15L15 10L20 5L15 0L10 5Z" fill="#f7a8a9"/></g><circle cx="378.54" cy="345.62" r="3.29" fill="#d8eafb"/><g transform="translate(408.17,342.33) scale(0.329) rotate(0)"><path d="M10 5L5 0L0 5L5 10L0 15L5 20L10 15L15 20L20 15L15 10L20 5L15 0L10 5Z" fill="#e8cf61"/></g><circle cx="444.37" cy="345.62" r="3.29" fill="#f6bcbe"/><circle cx="477.29" cy="345.62" r="3.29" fill="#f7b7b8"/><circle cx="510.21000000000004" cy="345.62" r="3.29" fill="#f7b6b7"/><g transform="translate(539.83,342.33) scale(0.329) rotate(0)"><path d="M10 5L5 0L0 5L5 10L0 15L5 20L10 15L15 20L20 15L15 10L20 5L15 0L10 5Z" fill="#ead36f"/></g><circle cx="576.04" cy="345.62" r="3.29" fill="#8ab7f2"/><g transform="translate(605.67,342.33) scale(0.329) rotate(0)"><path d="M10 5L5 0L0 5L5 10L0 15L5 20L10 15L15 20L20 15L15 10L20 5L15 0L10 5Z" fill="#5998ec"/></g><g transform="translate(638.58,342.33) scale(0.329) rotate(0)"><path d="M10 5L5 0L0 5L5 10L0 15L5 20L10 15L15 20L20 15L15 10L20 5L15 0L10 5Z" fill="#dfeffc"/></g><circle cx="674.79" cy="345.62" r="3.29" fill="#f6bcbd"/><g transform="translate(704.42,342.33) scale(0.329) rotate(0)"><path d="M10 5L5 0L0 5L5 10L0 15L5 20L10 15L15 20L20 15L15 10L20 5L15 0L10 5Z" fill="#c393fe"/></g><circle cx="16.46" cy="378.54" r="3.29" fill="#c9f8d7"/><g transform="translate(46.08,375.25) scale(0.329) rotate(0)"><path d="M10 5L5 0L0 5L5 10L0 15L5 20L10 15L15 20L20 15L15 10L20 5L15 0L10 5Z" fill="#7daff0"/></g><g transform="translate(79,375.25) scale(0.329) rotate(0)"><path d="M10 5L5 0L0 5L5 10L0 15L5 20L10 15L15 20L20 15L15 10L20 5L15 0L10 5Z" fill="#45ea5e"/></g><circle cx="115.21000000000001" cy="378.54" r="3.29" fill="#e9d36d"/><circle cx="148.12" cy="378.54" r="3.29" fill="#eee2a2"/><circle cx="181.04" cy="378.54" r="3.29" fill="#80b1f1"/><g transform="translate(210.67,375.25) scale(0.329) rotate(0)"><path d="M10 5L5 0L0 5L5 10L0 15L5 20L10 15L15 20L20 15L15 10L20 5L15 0L10 5Z" fill="#84b4f1"/></g><g transform="translate(243.58,375.25) scale(0.329) rotate(0)"><path d="M10 5L5 0L0 5L5 10L0 15L5 20L10 15L15 20L20 15L15 10L20 5L15 0L10 5Z" fill="#daebfc"/></g><circle cx="279.79" cy="378.54" r="3.29" fill="#f0ecc5"/><circle cx="312.71000000000004" cy="378.54" r="3.29" fill="#eeeeff"/><circle cx="345.62" cy="378.54" r="3.29" fill="#9cf3ae"/><g transform="translate(375.25,375.25) scale(0.329) rotate(0)"><path d="M10 5L5 0L0 5L5 10L0 15L5 20L10 15L15 20L20 15L15 10L20 5L15 0L10 5Z" fill="#c8e0fa"/></g><circle cx="411.46000000000004" cy="378.54" r="3.29" fill="#f88b8b"/><g transform="translate(441.08,375.25) scale(0.329) rotate(0)"><path d="M10 5L5 0L0 5L5 10L0 15L5 20L10 15L15 20L20 15L15 10L20 5L15 0L10 5Z" fill="#c2f7d0"/></g><circle cx="477.29" cy="378.54" r="3.29" fill="#5897ec"/><g transform="translate(506.92,375.25) scale(0.329) rotate(0)"><path d="M10 5L5 0L0 5L5 10L0 15L5 20L10 15L15 20L20 15L15 10L20 5L15 0L10 5Z" fill="#3580e8"/></g><circle cx="543.12" cy="378.54" r="3.29" fill="#6ea5ef"/><circle cx="576.04" cy="378.54" r="3.29" fill="#c4f8d2"/><g transform="translate(605.67,375.25) scale(0.329) rotate(0)"><path d="M10 5L5 0L0 5L5 10L0 15L5 20L10 15L15 20L20 15L15 10L20 5L15 0L10 5Z" fill="#f6d9db"/></g><circle cx="641.87" cy="378.54" r="3.29" fill="#d0affe"/><g transform="translate(671.5,375.25) scale(0.329) rotate(0)"><path d="M10 5L5 0L0 5L5 10L0 15L5 20L10 15L15 20L20 15L15 10L20 5L15 0L10 5Z" fill="#e8fcf3"/></g><circle cx="707.7099999999999" cy="378.54" r="3.29" fill="#f5fdff"/></g></svg>