<svg width="122" height="122" fill="none" xmlns="http://www.w3.org/2000/svg"><g clip-path="url(#a)"><path d="M29.064 95.056c-5.505 0-10.145-.896-13.92-2.688-3.777-1.856-6.656-4.256-8.64-7.2-1.92-2.944-2.944-6.08-3.072-9.408-.064-.576.095-1.024.48-1.344.447-.384.96-.576 1.535-.576h8.928c.704 0 1.28.16 1.729.48.512.256.896.736 1.152 1.44.64 1.92 1.535 3.488 2.688 4.704 1.216 1.216 2.591 2.112 4.128 2.688 1.6.576 3.264.864 4.992.864 2.303 0 4.383-.448 6.24-1.344 1.92-.96 3.456-2.368 4.607-4.224 1.152-1.856 1.728-4.128 1.728-6.816 0-2.368-.544-4.416-1.632-6.144-1.087-1.728-2.591-3.072-4.511-4.032-1.857-1.024-4-1.536-6.433-1.536-1.791 0-3.264.224-4.415.672-1.152.448-2.145.96-2.976 1.536a80.314 80.314 0 0 1-2.113 1.536c-.576.448-1.248.672-2.015.672H8.71a2.293 2.293 0 0 1-1.535-.576 2.293 2.293 0 0 1-.577-1.536l3.36-32.832c.065-.832.353-1.472.864-1.92a2.679 2.679 0 0 1 1.825-.672h36.096c.64 0 1.184.224 1.632.672.448.448.672.992.672 1.632v6.432c0 .64-.224 1.184-.672 1.632a2.222 2.222 0 0 1-1.633.672H21l-1.535 15.648c1.152-.768 2.688-1.504 4.608-2.208 1.92-.704 4.576-1.056 7.967-1.056 3.072 0 5.984.512 8.736 1.536 2.817.96 5.313 2.4 7.489 4.32 2.175 1.856 3.871 4.128 5.087 6.816 1.28 2.624 1.92 5.632 1.92 9.024 0 4.672-1.087 8.736-3.264 12.192-2.175 3.456-5.215 6.144-9.12 8.064-3.904 1.92-8.511 2.88-13.823 2.88Zm61.643-.096c-4.544 0-8.416-.672-11.616-2.016-3.2-1.344-5.824-3.2-7.872-5.568-2.048-2.368-3.584-5.088-4.608-8.16-1.024-3.136-1.632-6.464-1.824-9.984a985.752 985.752 0 0 1-.192-5.664v-6.336c.064-2.112.128-4.064.192-5.856.128-3.52.736-6.816 1.824-9.888 1.088-3.136 2.656-5.856 4.704-8.16 2.112-2.304 4.768-4.128 7.968-5.472 3.2-1.344 7.008-2.016 11.424-2.016 4.48 0 8.32.672 11.52 2.016 3.2 1.344 5.824 3.168 7.872 5.472 2.112 2.304 3.68 5.024 4.704 8.16 1.088 3.072 1.696 6.368 1.824 9.888.128 1.792.192 3.744.192 5.856v6.336c0 2.048-.064 3.936-.192 5.664-.128 3.52-.704 6.848-1.728 9.984-1.024 3.072-2.56 5.792-4.608 8.16-2.048 2.368-4.704 4.224-7.968 5.568-3.2 1.344-7.072 2.016-11.616 2.016Zm0-11.04c4.16 0 7.2-1.344 9.12-4.032 1.984-2.752 3.008-6.464 3.072-11.136.128-1.856.192-3.712.192-5.568v-5.76c0-1.92-.064-3.744-.192-5.472-.064-4.544-1.088-8.192-3.072-10.944-1.92-2.816-4.96-4.224-9.12-4.224-4.096 0-7.136 1.408-9.12 4.224-1.92 2.752-2.944 6.4-3.072 10.944 0 1.728-.032 3.552-.096 5.472v5.76c.064 1.856.096 3.712.096 5.568.128 4.672 1.184 8.384 3.168 11.136 1.984 2.688 4.992 4.032 9.024 4.032Z" fill="#fff"/></g><defs><clipPath id="a"><path fill="#fff" d="M0 0h122v122H0z"/></clipPath></defs></svg>