<svg width="527" height="527" fill="none" xmlns="http://www.w3.org/2000/svg"><path d="m210.182 361.938-.001.021-.001.021c-.222 5.199-.762 11.532-1.927 17.613-1.206 6.291-2.879 11.2-4.763 14.279-1.893 3.086-5.506 6.802-10.563 10.727-4.875 3.784-10.259 7.127-14.804 9.694-9.455 5.28-9.726 15.316-8.547 20.193 1.188 4.916 5.983 13.595 16.695 14.082l.021.001.022.001c5.208.223 11.54.758 17.618 1.92 6.291 1.204 11.19 2.876 14.258 4.76l.012.008c3.091 1.895 6.81 5.508 10.735 10.559 3.782 4.87 7.125 10.247 9.689 14.788 5.252 9.404 15.23 9.734 20.126 8.574 4.93-1.168 13.661-5.95 14.149-16.7l.001-.022.001-.022c.223-5.22.758-11.557 1.921-17.638 1.203-6.293 2.875-11.191 4.76-14.259 1.894-3.084 5.509-6.8 10.563-10.724 4.886-3.794 10.283-7.146 14.832-9.713 9.316-5.255 9.713-15.144 8.532-20.119-1.183-4.977-5.992-13.647-16.699-14.134l-.022-.001h-.022c-5.21-.223-11.548-.762-17.632-1.928-6.29-1.205-11.196-2.877-14.275-4.759-3.077-1.894-6.788-5.507-10.71-10.562-3.792-4.889-7.144-10.29-9.713-14.842-5.282-9.373-15.232-9.713-20.19-8.511-4.963 1.202-13.581 6.025-14.066 16.693Zm-16.861 79.374a.93.93 0 0 0 .028-.016l-.046.027.018-.011Zm72.325 24.095-.016-.027.026.046-.01-.019Zm24.095-72.303-.008.005.008-.005Z" fill="#FACA0A" stroke="#fff" stroke-width="31"/><path d="m421.509 339.513-.003-.047-.004-.046c-.878-10.738-9.818-15.1-14.253-16.167-4.436-1.067-14.389-1.247-20.052 7.93l-.027.044-.027.045c-3.647 6-7.486 10.607-10.167 12.253l-.011.006-.01.007c-2.629 1.619-8.426 2.936-15.501 3.496-10.824.821-15.189 9.866-16.243 14.247-1.052 4.375-1.287 14.435 8.008 20.089 6.012 3.668 10.623 7.5 12.264 10.174l.007.011.006.01c1.617 2.626 2.936 8.439 3.496 15.523.825 10.863 9.92 15.21 14.312 16.247 4.394 1.037 14.401 1.214 20.027-8.037 3.672-6.019 7.492-10.605 10.137-12.218l.028-.017.028-.017c2.638-1.625 8.488-2.963 15.505-3.495l.047-.004.046-.003c10.777-.882 15.122-9.872 16.171-14.317 1.052-4.455 1.174-14.355-7.956-19.988l-.034-.021-.034-.021c-6.025-3.675-10.616-7.499-12.23-10.145l-.018-.028-.017-.028c-1.627-2.641-2.964-8.475-3.495-15.483ZM363.86 377.94a.246.246 0 0 0 .026-.002l-.041.003.015-.001Zm12.997 21.228.006-.009-.006.009Zm23.042 5.514a.211.211 0 0 1-.002-.026l.003.043-.001-.017Zm-30.547-49.783.01.006-.01-.006Z" fill="#FEDA4A" stroke="#fff" stroke-width="31"/><path d="m329.697 71.543-.007-.009-.82-1.035c-9.612-12.138-17.887-22.587-25.334-29.609-7.682-7.243-17.974-14.225-31.259-12.104l-.016.003-.015.002c-13.259 2.145-20.853 11.979-25.893 21.255-4.911 9.04-9.537 21.622-14.916 36.255l-.379 1.032-.002.004-2.959 8.022-.003.01-.004.01c-1.706 4.645-2.691 7.294-3.58 9.227-.4.871-.672 1.349-.836 1.606-.143.225-.206.286-.212.292a.32.32 0 0 1-.036.034c-.021.018-.073.06-.172.128-.21.144-.63.406-1.438.808-1.818.905-4.318 1.914-8.817 3.711v.001l-7.751 3.096-.033.013-.034.014-5.394 2.184c-12.813 5.125-24.111 9.765-32.338 14.915-8.602 5.384-16.73 13.109-18.535 25.379l-.003.016-.002.015c-1.884 12.979 4.447 23.243 11.562 31.305 6.822 7.732 16.984 16.321 28.786 26.295l.865.732.005.004 6.5 5.489.007.006c3.745 3.16 5.874 4.978 7.368 6.462 1.257 1.248 1.47 1.693 1.502 1.762l.003.006.015.03.015.029c.298.593.647 1.497 1.297 12.305l.001.014.527 8.629.001.012.083 1.341c.963 15.605 1.79 28.984 3.876 39.101 2.156 10.453 6.509 21.927 18.201 28.117l.003.002c11.909 6.31 23.794 3.124 33.402-1.355 9.193-4.285 20.143-11.589 32.762-20.006l.979-.653.003-.002 6.98-4.653.009-.006c4.051-2.705 6.306-4.2 8.082-5.186.968-.538 1.43-.711 1.579-.757l.02-.003.034-.006H313.386c.014-.001.072-.003.185.002.242.011.729.056 1.617.226 1.998.381 4.614 1.094 9.305 2.391l.004.001 8.04 2.235.007.002.007.002 1.217.337c14.587 4.04 27.245 7.546 37.295 8.743 10.52 1.253 22.812.575 32.154-9.147l.007-.007c9.159-9.525 9.71-21.781 8.499-32.375-1.176-10.288-4.576-23.29-8.541-38.46l-.314-1.198-.002-.008-.002-.007-2.187-8.334-.004-.016c-2.726-10.48-2.703-11.478-2.599-12.193.004-.03.037-.489.879-2.134.966-1.887 2.427-4.28 5.008-8.463l.006-.009.006-.009 4.457-7.246.66-1.073c8.068-13.112 15.018-24.407 19.079-33.854 4.247-9.882 7.063-21.604 1.234-33.354l-.011-.022-.011-.021c-5.926-11.853-17.065-16.495-27.532-18.777-9.968-2.174-23.107-2.989-38.252-3.928l-.988-.062h-.017l-8.327-.527h-.01c-4.815-.301-7.499-.481-9.5-.773-.89-.13-1.372-.248-1.618-.32a1.332 1.332 0 0 1-.263-.095 1.695 1.695 0 0 1-.281-.203c-.233-.192-.639-.56-1.29-1.26-1.447-1.559-3.207-3.765-6.275-7.64l-4.654-5.879h-.017l-.66-.834Zm-16.319 214.284a.264.264 0 0 1-.055.014.273.273 0 0 1 .055-.014Z" fill="#FACA0A" stroke="#fff" stroke-width="31"/><mask id="a" maskUnits="userSpaceOnUse" x="57.089" y="128.5" width="168" height="298" fill="#000"><path fill="#fff" d="M57.089 128.5h168v298h-168z"/><path d="M194.002 292.617c-46.925 22.924-85.989 59.243-100.723 102.633-16.513-103.358 8.485-169.249 45.221-210.75 3.162 6.478 5.217 10.973 8.906 15.167 7.686 8.696 18.709 18.006 29.908 27.47l8.058 6.807 3.733 3.184c.11 1.405.22 3.074.33 5.204l.658 10.65c.879 14.383 1.757 28.414 3.909 39.635Z"/></mask><path d="M194.002 292.617c-46.925 22.924-85.989 59.243-100.723 102.633-16.513-103.358 8.485-169.249 45.221-210.75 3.162 6.478 5.217 10.973 8.906 15.167 7.686 8.696 18.709 18.006 29.908 27.47l8.058 6.807 3.733 3.184c.11 1.405.22 3.074.33 5.204l.658 10.65c.879 14.383 1.757 28.414 3.909 39.635Z" fill="#FEDA4A"/><path d="m194.002 292.617 13.607 27.853c12.575-6.142 19.474-19.948 16.838-33.692l-30.445 5.839ZM93.279 395.25l-30.612 4.891c2.248 14.07 13.798 24.796 27.997 25.998 14.198 1.203 27.387-7.429 31.969-20.921l-29.354-9.968ZM138.5 184.5l27.858-13.599-20.339-41.666-30.731 34.718L138.5 184.5Zm8.906 15.167-23.277 20.474.025.028.024.028 23.228-20.53Zm29.908 27.47-20.01 23.677.006.005 20.004-23.682Zm8.058 6.807 20.118-23.586-.057-.048-.057-.048-20.004 23.682Zm3.733 3.184 30.906-2.415-1.002-12.824-9.786-8.347-20.118 23.586Zm.33 5.204-30.959 1.596.008.159.01.159 30.941-1.914Zm.658 10.65 30.943-1.89-.001-.012-.001-.012-30.941 1.914Zm-9.699 11.781c-51.458 25.139-98.198 66.714-116.469 120.519l58.708 19.936c11.197-32.975 42.585-64.038 84.976-84.748l-27.215-55.707Zm-56.503 125.596c-15.307-95.812 8.24-151.893 37.821-185.312l-46.424-41.094c-43.891 49.584-70.339 125.284-52.62 236.188l61.223-9.782Zm-13.249-192.26c2.502 5.125 6.434 14.024 13.487 22.042l46.554-40.948c-.005-.005-.225-.225-.851-1.348a64.65 64.65 0 0 1-1.367-2.633c-.629-1.265-1.226-2.507-2.107-4.311l-55.716 27.198Zm13.536 22.098c9.504 10.752 22.505 21.642 33.126 30.617l40.019-47.354c-11.777-9.953-20.821-17.684-26.689-24.323l-46.456 41.06Zm33.132 30.622 8.058 6.807 40.008-47.364-8.058-6.807-40.008 47.364Zm7.945 6.711 3.733 3.184 40.235-47.172-3.733-3.184-40.235 47.172Zm-7.056-17.988c.086 1.096.179 2.49.277 4.386l61.917-3.192a223.433 223.433 0 0 0-.382-6.023l-61.812 4.829Zm.295 4.704.658 10.65 61.882-3.828-.659-10.65-61.881 3.828Zm.657 10.625c.842 13.787 1.801 30 4.406 43.584l60.89-11.677c-1.699-8.857-2.497-20.707-3.411-35.686l-61.885 3.779Z" fill="#fff" mask="url(#a)"/></svg>